<svg width="58" height="58" viewBox="0 0 58 58" fill="none" xmlns="http://www.w3.org/2000/svg">
<path d="M14 6.5H15.875V4.625H17.75V2.75H15.875V0.875H14V2.75H12.125V4.625H14V6.5Z" fill="#2C87BF"/>
<path d="M2.75 9.3125H4.625V7.4375H6.5V5.5625H4.625V3.6875H2.75V5.5625H0.875V7.4375H2.75V9.3125Z" fill="#2C87BF"/>
<path d="M42.125 6.5H44V4.625H45.875V2.75H44V0.875H42.125V2.75H40.25V4.625H42.125V6.5Z" fill="#2C87BF"/>
<path d="M55.25 5.5625V3.6875H53.375V5.5625H51.5V7.4375H53.375V9.3125H55.25V7.4375H57.125V5.5625H55.25Z" fill="#2C87BF"/>
<path d="M57.0687 24.9406L51.8844 10.25C51.6904 9.70142 51.3311 9.22649 50.8559 8.89068C50.3807 8.55486 49.8131 8.37469 49.2312 8.375H48.3781C47.9413 8.37383 47.5102 8.47497 47.1195 8.67033C46.7288 8.86569 46.3893 9.14983 46.1281 9.5C45.8663 9.85122 45.6895 10.2583 45.6114 10.6893C45.5333 11.1204 45.5561 11.5636 45.6781 11.9844L49.625 25.3812V32.5063L46.8125 37.5687V29.9375C46.8103 29.1923 46.5132 28.4782 45.9863 27.9512C45.4593 27.4243 44.7452 27.1272 44 27.125H43.5312C42.9589 27.1286 42.4012 27.3063 41.9323 27.6345C41.4634 27.9628 41.1055 28.4259 40.9062 28.9625C40.4998 28.3921 40.0063 27.8891 39.4437 27.4719C41.1812 24.5253 42.1064 21.1707 42.125 17.75C42.125 8.44062 36.2375 0.875 29 0.875C21.7625 0.875 15.875 8.44062 15.875 17.75C15.8933 21.1661 16.822 24.5155 18.5656 27.4531C18.0001 27.8701 17.5035 28.373 17.0937 28.9438C16.8907 28.4112 16.5313 27.9526 16.0628 27.628C15.5944 27.3034 15.0387 27.1281 14.4687 27.125H14C13.2548 27.1272 12.5407 27.4243 12.0137 27.9512C11.4868 28.4782 11.1897 29.1923 11.1875 29.9375V37.5687L8.375 32.5063V25.3812L12.3219 11.9844C12.4438 11.5636 12.4667 11.1204 12.3886 10.6893C12.3105 10.2583 12.1337 9.85122 11.8719 9.5C11.6107 9.14983 11.2712 8.86569 10.8805 8.67033C10.4897 8.47497 10.0587 8.37383 9.62188 8.375H8.76875C8.18689 8.37469 7.61926 8.55486 7.14408 8.89068C6.66891 9.22649 6.30958 9.70142 6.11563 10.25L0.931256 24.9406C0.893686 25.0394 0.874619 25.1443 0.875006 25.25V39.3125C0.876827 39.4142 0.892599 39.5151 0.921881 39.6125L4.25938 49.625H2.75C2.50136 49.625 2.26291 49.7238 2.08709 49.8996C1.91128 50.0754 1.81251 50.3139 1.81251 50.5625V56.1875C1.81251 56.4361 1.91128 56.6746 2.08709 56.8504C2.26291 57.0262 2.50136 57.125 2.75 57.125H23.375C23.6236 57.125 23.8621 57.0262 24.0379 56.8504C24.2137 56.6746 24.3125 56.4361 24.3125 56.1875V50.5625C24.3125 50.3139 24.2137 50.0754 24.0379 49.8996C23.8621 49.7238 23.6236 49.625 23.375 49.625H21.5V44C21.502 43.911 21.4893 43.8223 21.4625 43.7375L20.4406 40.25H37.5594L36.5375 43.7375C36.5106 43.8223 36.498 43.911 36.5 44V49.625H34.625C34.3764 49.625 34.1379 49.7238 33.9621 49.8996C33.7863 50.0754 33.6875 50.3139 33.6875 50.5625V56.1875C33.6875 56.4361 33.7863 56.6746 33.9621 56.8504C34.1379 57.0262 34.3764 57.125 34.625 57.125H55.25C55.4986 57.125 55.7371 57.0262 55.9129 56.8504C56.0887 56.6746 56.1875 56.4361 56.1875 56.1875V50.5625C56.1875 50.3139 56.0887 50.0754 55.9129 49.8996C55.7371 49.7238 55.4986 49.625 55.25 49.625H53.7406L57.0781 39.6125C57.1074 39.5151 57.1232 39.4142 57.125 39.3125V25.25C57.1254 25.1443 57.1063 25.0394 57.0687 24.9406ZM17.75 17.75C17.75 9.48125 22.7937 2.75 29 2.75C35.2062 2.75 40.25 9.48125 40.25 17.75C40.2334 21.1266 39.2368 24.4258 37.3812 27.2469C37.4192 26.895 37.438 26.5414 37.4375 26.1875C37.5197 23.1814 36.7911 20.2086 35.3281 17.5812C35.4827 17.0256 35.5615 16.4517 35.5625 15.875V10.25C35.5623 10.0406 35.4921 9.83734 35.363 9.67253C35.2338 9.50772 35.0532 9.39087 34.85 9.34062L27.35 7.46562C27.1325 7.41063 26.9023 7.43731 26.7031 7.54062L22.9531 9.41562C22.7969 9.49151 22.6655 9.61025 22.5742 9.75798C22.4829 9.90571 22.4355 10.0763 22.4375 10.25V15.875C22.4385 16.4517 22.5173 17.0256 22.6719 17.5812C21.2089 20.2086 20.4803 23.1814 20.5625 26.1875C20.562 26.5351 20.5808 26.8826 20.6187 27.2281C18.767 24.4122 17.7706 21.1202 17.75 17.75ZM25.25 21.2563V23.8438L22.4469 25.9438C22.4347 23.7992 22.849 21.6736 23.6656 19.6906C24.1065 20.294 24.6414 20.8226 25.25 21.2563ZM24.3125 15.875V10.8313L27.2375 9.36875L33.6875 10.9812V15.875C33.6875 17.1182 33.1936 18.3105 32.3146 19.1896C31.4355 20.0686 30.2432 20.5625 29 20.5625C27.7568 20.5625 26.5645 20.0686 25.6854 19.1896C24.8064 18.3105 24.3125 17.1182 24.3125 15.875ZM26.75 25.0625C26.8657 24.9745 26.9596 24.8611 27.0247 24.7311C27.0897 24.6011 27.124 24.4579 27.125 24.3125V22.1656C28.3487 22.5281 29.6513 22.5281 30.875 22.1656V24.3125C30.876 24.4579 30.9103 24.6011 30.9753 24.7311C31.0403 24.8611 31.1343 24.9745 31.25 25.0625L33.8562 27.0219L29 29.7969L24.1437 27.0219L26.75 25.0625ZM32.75 23.8438V21.2563C33.3586 20.8226 33.8935 20.294 34.3344 19.6906C35.151 21.6736 35.5653 23.7992 35.5531 25.9438L32.75 23.8438ZM2.75 39.1625V25.4094L7.87813 10.8781C7.94261 10.6937 8.06311 10.534 8.22279 10.4214C8.38247 10.3087 8.57335 10.2488 8.76875 10.25H9.62188C9.76742 10.25 9.91096 10.2839 10.0411 10.349C10.1713 10.4141 10.2846 10.5086 10.3719 10.625C10.4592 10.7414 10.5182 10.8766 10.5443 11.0198C10.5703 11.163 10.5626 11.3103 10.5219 11.45L6.5375 24.9875C6.51065 25.0723 6.49798 25.161 6.5 25.25V32.75C6.49813 32.9114 6.54026 33.0702 6.62188 33.2094L11.3094 41.6469C11.4113 41.8268 11.5699 41.9679 11.7604 42.0483C11.9509 42.1288 12.1626 42.1439 12.3626 42.0915C12.5627 42.0391 12.7397 41.922 12.8663 41.7585C12.9929 41.595 13.0619 41.3943 13.0625 41.1875V29.9375C13.0625 29.6889 13.1613 29.4504 13.3371 29.2746C13.5129 29.0988 13.7514 29 14 29H14.4687C14.6716 29 14.869 29.0658 15.0312 29.1875C15.1935 29.3092 15.3119 29.4803 15.3687 29.675L19.625 44.1312V49.625H6.2375L2.75 39.1625ZM22.4375 51.5V55.25H3.6875V51.5H22.4375ZM19.8875 38.375L17.9 31.6156C18.1546 30.5875 18.7493 29.6756 19.5875 29.0281C20.2383 29.9439 20.9795 30.7919 21.8 31.5594C21.9532 31.6944 22.1473 31.7743 22.3512 31.7862C22.5551 31.7981 22.7571 31.7413 22.925 31.625C23.0991 31.5038 23.2301 31.3304 23.2992 31.1299C23.3683 30.9294 23.3719 30.7121 23.3094 30.5094C23.0937 29.8063 22.8687 29.0938 22.7094 28.3531L28.5312 31.6906C28.6746 31.7705 28.8359 31.8124 29 31.8124C29.1641 31.8124 29.3254 31.7705 29.4687 31.6906L35.3 28.3531C35.1312 29.1406 34.9062 29.8906 34.6812 30.6031C34.6213 30.8008 34.6283 31.0127 34.7012 31.206C34.7741 31.3992 34.9088 31.563 35.0844 31.6719C35.2338 31.7637 35.4058 31.8124 35.5812 31.8125C35.8185 31.8139 36.047 31.7231 36.2187 31.5594C37.0332 30.7984 37.7683 29.9565 38.4125 29.0469C39.2499 29.6871 39.845 30.5928 40.1 31.6156L38.1125 38.375H19.8875ZM54.3125 51.5V55.25H35.5625V51.5H54.3125ZM55.25 39.1625L51.7625 49.625H38.375V44.1312L42.6312 29.675C42.688 29.4803 42.8065 29.3092 42.9687 29.1875C43.131 29.0658 43.3284 29 43.5312 29H44C44.2486 29 44.4871 29.0988 44.6629 29.2746C44.8387 29.4504 44.9375 29.6889 44.9375 29.9375V41.1875C44.9381 41.3943 45.0071 41.595 45.1337 41.7585C45.2602 41.922 45.4373 42.0391 45.6373 42.0915C45.8374 42.1439 46.0491 42.1288 46.2396 42.0483C46.4301 41.9679 46.5887 41.8268 46.6906 41.6469L51.3781 33.2094C51.4597 33.0702 51.5019 32.9114 51.5 32.75V25.25C51.502 25.161 51.4893 25.0723 51.4625 24.9875L47.4781 11.45C47.4374 11.3103 47.4297 11.163 47.4557 11.0198C47.4818 10.8766 47.5408 10.7414 47.6281 10.625C47.7154 10.5086 47.8287 10.4141 47.9588 10.349C48.089 10.2839 48.2326 10.25 48.3781 10.25H49.2312C49.4266 10.2488 49.6175 10.3087 49.7772 10.4214C49.9369 10.534 50.0574 10.6937 50.1219 10.8781L55.25 25.4094V39.1625Z" fill="#2C87BF"/>
<path d="M26.1875 12.125H28.0625V14H26.1875V12.125Z" fill="#2C87BF"/>
<path d="M29.9375 12.125H31.8125V14H29.9375V12.125Z" fill="#2C87BF"/>
</svg>
