<svg width="53" height="54" viewBox="0 0 53 54" fill="none" xmlns="http://www.w3.org/2000/svg">
<path fill-rule="evenodd" clip-rule="evenodd" d="M26.5 53.0073C41.1355 53.0073 53 41.1412 53 26.5037C53 11.8661 41.1355 0 26.5 0C11.8645 0 0 11.8661 0 26.5037C0 41.1412 11.8645 53.0073 26.5 53.0073Z" fill="#FAFAFA"/>
<path d="M52.5 26.5037C52.5 40.8652 40.8593 52.5073 26.5 52.5073C12.1407 52.5073 0.5 40.8652 0.5 26.5037C0.5 12.1422 12.1407 0.5 26.5 0.5C40.8593 0.5 52.5 12.1422 52.5 26.5037Z" stroke="#2C87BF" stroke-opacity="0.7"/>
<path d="M23.7315 33.2285L30.0598 26.8992L23.7315 20.5698" stroke="#2C87BF" stroke-width="2" stroke-linecap="round" stroke-linejoin="round"/>
</svg>
