<svg width="89" height="105" viewBox="0 0 89 105" fill="none" xmlns="http://www.w3.org/2000/svg">
<g filter="url(#filter0_d)">
<path d="M20.4775 13.9999C27.5672 11.3814 46.863 7.71539 67.3289 13.9999V61.5008L44.0519 72.8804L20.4775 61.5008V13.9999Z" fill="#25A9FA"/>
<path fill-rule="evenodd" clip-rule="evenodd" d="M23.2504 15.9231V61.1456L44.6181 71.4277L65.7496 61.1503V15.9693C47.7005 11.0895 30.5871 13.7222 23.2504 15.9231ZM21.0952 13.2402C28.3388 10.7744 47.6211 7.39748 67.83 13.2167L69 13.5536V63.1454L44.6257 75L20 63.1501V13.613L21.0952 13.2402Z" fill="white"/>
<path d="M44.529 25.3737C43.1554 25.4933 42.1427 24.4939 42.2635 23.1392C43.6371 23.0197 44.6499 24.019 44.529 25.3737Z" fill="white"/>
<path d="M44.5816 26.3177C44.4631 26.2885 44.37 26.1895 44.3558 26.0628C44.2908 25.4823 44.4592 24.912 44.8291 24.4564C45.1993 24.0009 45.7273 23.7147 46.3154 23.6509C46.4804 23.6333 46.6285 23.7504 46.6463 23.9129C46.6645 24.0754 46.5457 24.2215 46.381 24.2397C45.9521 24.2862 45.5674 24.4946 45.2975 24.8267C45.0276 25.1588 44.9052 25.5744 44.9524 25.9975C44.9705 26.1603 44.8517 26.3064 44.6867 26.3245C44.6505 26.3287 44.6151 26.326 44.5816 26.3177Z" fill="white"/>
<path d="M46.7452 25.3751C46.4176 25.2889 46.0788 25.3068 45.7464 25.4123C44.8923 25.6839 43.9841 25.6839 43.13 25.4123C42.7976 25.3068 42.4588 25.2889 42.1312 25.3751C40.8232 25.7188 40.1922 27.5855 40.7214 29.5445C41.2505 31.5036 42.7396 32.8127 44.0476 32.4689C44.0491 32.4686 44.0503 32.4683 44.0518 32.4677C44.306 32.4 44.5707 32.4 44.8249 32.4677C44.8264 32.468 44.8276 32.4683 44.8291 32.4689C46.1368 32.8127 47.6262 31.5033 48.1554 29.5445C48.6842 27.5855 48.0529 25.7188 46.7452 25.3751Z" fill="white"/>
<path d="M48.2167 29.5392C47.6878 31.498 46.1978 32.8068 44.8892 32.4639H44.8862C44.6323 32.3953 44.3664 32.3953 44.1125 32.4639H44.1095C43.6169 32.5921 43.1001 32.4878 42.6196 32.2045C45.1854 31.2267 47.1075 28.7581 47.5095 25.7499C48.3224 26.4684 48.6398 27.974 48.2167 29.5392Z" fill="white"/>
<path fill-rule="evenodd" clip-rule="evenodd" d="M52.7488 33.9271H38.1547V33.7706H52.7488V33.9271Z" fill="white"/>
<path fill-rule="evenodd" clip-rule="evenodd" d="M52.9074 35.9615H38.1547V35.805H52.9074V35.9615Z" fill="white"/>
<path fill-rule="evenodd" clip-rule="evenodd" d="M52.9074 34.866H38.1547V34.7095H52.9074V34.866Z" fill="white"/>
<path fill-rule="evenodd" clip-rule="evenodd" d="M37.0443 32.7128C37.0443 32.5192 37.2046 32.3622 37.4023 32.3622H51.8261C52.027 32.3622 52.2108 32.4577 52.3501 32.5559C52.499 32.661 52.646 32.804 52.7814 32.969C53.052 33.2989 53.3031 33.7496 53.4382 34.2508C53.5736 34.7533 53.5969 35.3248 53.3839 35.8785C53.1688 36.4377 52.7261 36.943 51.9958 37.328C51.9437 37.3555 51.8854 37.3699 51.8261 37.3699H37.4023C37.2046 37.3699 37.0443 37.2129 37.0443 37.0193C37.0443 36.8257 37.2046 36.6688 37.4023 36.6688H51.7335C52.283 36.361 52.5741 35.9944 52.7138 35.6314C52.862 35.2461 52.8534 34.8286 52.7458 34.4297C52.638 34.0295 52.4351 33.6665 52.2231 33.408C52.117 33.2788 52.0155 33.184 51.9315 33.1247C51.856 33.0715 51.8195 33.0642 51.8197 33.0633C51.8197 33.0633 51.8197 33.0633 51.8197 33.0633L37.4023 33.0633C37.2046 33.0633 37.0443 32.9064 37.0443 32.7128Z" fill="white"/>
<path fill-rule="evenodd" clip-rule="evenodd" d="M51.0039 38.3087L36.2511 38.3087L36.2511 38.1522L51.0039 38.1522L51.0039 38.3087Z" fill="white"/>
<path fill-rule="evenodd" clip-rule="evenodd" d="M51.0039 39.4041L36.0925 39.4041L36.0925 39.2477L51.0039 39.2477L51.0039 39.4041Z" fill="white"/>
<path fill-rule="evenodd" clip-rule="evenodd" d="M51.0039 40.343L36.0925 40.343L36.0925 40.1866L51.0039 40.1866L51.0039 40.343Z" fill="white"/>
<path fill-rule="evenodd" clip-rule="evenodd" d="M52.1143 37.1053C52.1143 36.9057 51.959 36.6656 51.7593 36.6656H37.1968C36.994 36.6656 36.802 36.8422 36.6614 36.9436C36.5109 37.0519 36.3625 37.1994 36.2259 37.3696C35.9526 37.7098 35.6991 38.1746 35.5627 38.6914C35.426 39.2096 35.4025 39.799 35.6176 40.37C35.8348 40.9467 36.2817 41.4678 37.019 41.8648C37.0716 41.8931 37.1305 41.908 37.1904 41.908H51.7528C51.9525 41.908 52.1143 41.7461 52.1143 41.5465C52.1143 41.3468 51.9525 41.185 51.7528 41.185H37.2839C36.7291 40.8676 36.4351 40.4895 36.2941 40.1151C36.1445 39.7178 36.1532 39.2873 36.2618 38.8759C36.3707 38.4632 36.5755 38.0888 36.7896 37.8223C36.8966 37.689 36.9991 37.5913 37.0839 37.5302C37.1602 37.4753 37.197 37.4677 37.1968 37.4669L51.7593 37.3698C51.959 37.3698 52.1143 37.305 52.1143 37.1053Z" fill="white"/>
<path d="M30.2828 45.5652C30.2828 45.4945 30.2796 45.4246 30.2733 45.3554C30.2573 45.1605 30.1474 45.0395 29.9435 44.9924L29.8599 44.9712C29.8057 44.9586 29.7794 44.9327 29.781 44.8934C29.7778 44.8462 29.8168 44.8211 29.8981 44.8179C29.9204 44.8179 30.0032 44.8226 30.1466 44.8321C30.2916 44.8415 30.4525 44.8462 30.6293 44.8462C30.7886 44.8478 30.9416 44.8439 31.0881 44.8344C31.2905 44.8234 31.4506 44.8179 31.5685 44.8179C31.8011 44.8179 32.005 44.8714 32.1802 44.9782C32.3109 45.0584 32.416 45.1747 32.4957 45.3271C32.5626 45.456 32.596 45.5872 32.596 45.7208C32.596 46.0037 32.4757 46.2269 32.2352 46.3903C32.1938 46.4202 32.1508 46.4445 32.1061 46.4634C32.0631 46.4822 32.0416 46.5027 32.0416 46.5247C32.04 46.5372 32.0496 46.5616 32.0703 46.5977L32.1492 46.7486L32.6319 47.6091C32.7609 47.8432 32.8756 47.9627 32.976 47.9674C33.0063 47.9674 33.0453 47.9603 33.0931 47.9462L33.1313 47.9391C33.1775 47.9391 33.199 47.9642 33.1958 48.0145C33.1974 48.0821 33.1297 48.1465 32.9927 48.2078C32.9003 48.2503 32.8055 48.2715 32.7083 48.2715C32.5745 48.2731 32.4598 48.2369 32.3642 48.163C32.2463 48.0766 32.1149 47.9069 31.9699 47.6538C31.9014 47.536 31.8019 47.3435 31.6712 47.0763C31.6234 46.982 31.578 46.8995 31.535 46.8288C31.4824 46.7486 31.4283 46.6968 31.3725 46.6732C31.3184 46.6543 31.2188 46.6441 31.0738 46.6425L30.9711 46.6473C30.9233 46.6583 30.8986 46.6913 30.897 46.7463C30.8954 46.7997 30.8954 46.8571 30.897 46.9183V47.4959C30.8954 47.5761 30.8986 47.6468 30.9065 47.7081C30.9209 47.8857 31.0268 48.0035 31.2244 48.0617L31.3176 48.0876C31.3526 48.097 31.3781 48.1151 31.394 48.1418L31.3988 48.163C31.402 48.2086 31.3614 48.233 31.2769 48.2361L31.0236 48.2243C30.8468 48.2133 30.701 48.2078 30.5863 48.2078C30.4382 48.2078 30.2956 48.2149 30.1586 48.229L30.0391 48.2361C29.9754 48.2377 29.9427 48.2102 29.9411 48.1536C29.9411 48.1175 29.9674 48.0868 30.02 48.0617L30.106 48.0192C30.2016 47.969 30.2565 47.8943 30.2709 47.7953C30.2773 47.756 30.2804 47.7089 30.2804 47.6538L30.2828 47.4676V45.5652ZM30.897 46.1805C30.8938 46.2544 30.8978 46.3054 30.9089 46.3337C30.9264 46.3777 30.9695 46.3989 31.038 46.3974C31.0682 46.4005 31.1264 46.4013 31.2124 46.3997C31.4848 46.4013 31.6625 46.3785 31.7453 46.3314C31.903 46.2402 31.9819 46.0878 31.9819 45.874C31.9771 45.6352 31.9062 45.4356 31.7692 45.2753C31.6465 45.1322 31.4721 45.0607 31.2459 45.0607C31.0977 45.0623 31.0037 45.0827 30.9639 45.122C30.9177 45.166 30.8954 45.2572 30.897 45.3955V46.1805Z" fill="white"/>
<path d="M33.8506 45.5723C33.8506 45.3884 33.8299 45.2595 33.7885 45.1857C33.7327 45.0898 33.6212 45.0254 33.4539 44.9924L33.3703 44.9759C33.3145 44.9664 33.2882 44.9421 33.2914 44.9028C33.2962 44.8494 33.3352 44.8211 33.4085 44.8179C33.4356 44.8179 33.5176 44.8226 33.6546 44.8321C33.7932 44.8415 33.9438 44.8462 34.1063 44.8462C34.2975 44.8462 34.4592 44.8391 34.5914 44.825L34.7061 44.8179C34.7698 44.8179 34.8033 44.8454 34.8065 44.9004C34.8049 44.9366 34.7794 44.9672 34.73 44.9924C34.6981 45.0065 34.6687 45.0215 34.6416 45.0372C34.5619 45.078 34.5125 45.1283 34.4934 45.188C34.4791 45.2336 34.4703 45.3043 34.4671 45.4002C34.4639 45.4473 34.4632 45.5094 34.4647 45.5864V47.4794C34.4632 47.6633 34.4839 47.7929 34.5269 47.8684C34.5858 47.9721 34.6973 48.0365 34.8614 48.0617L34.9451 48.0758C35.0008 48.09 35.0271 48.1151 35.0239 48.1513C35.0207 48.2063 34.9817 48.2345 34.9068 48.2361L34.6583 48.2243C34.4831 48.2149 34.3238 48.2094 34.1804 48.2078C34.0131 48.2078 33.861 48.2149 33.7239 48.229L33.6045 48.2361C33.5423 48.2377 33.5105 48.2102 33.5089 48.1536C33.5089 48.1175 33.5352 48.0868 33.5877 48.0617L33.6738 48.0192C33.7694 47.969 33.8243 47.8943 33.8387 47.7953C33.845 47.756 33.8482 47.7089 33.8482 47.6538L33.8506 47.4676V45.5723Z" fill="white"/>
<path d="M36.8687 45.4214C36.8958 45.3758 36.9261 45.3201 36.9596 45.254C36.9755 45.2242 36.9834 45.1967 36.9834 45.1715C36.9834 45.1511 36.9779 45.137 36.9667 45.1291C36.946 45.1165 36.9189 45.1095 36.8855 45.1079C36.7039 45.0969 36.5445 45.0906 36.4075 45.089C36.21 45.0906 36.0602 45.104 35.9583 45.1291C35.8133 45.1637 35.7042 45.2556 35.6309 45.4049L35.5664 45.5487C35.5425 45.5974 35.5114 45.6226 35.4732 45.6242C35.419 45.6304 35.3903 45.5982 35.3872 45.5275L35.3943 45.4214L35.4278 45.1597L35.4445 44.9382C35.4541 44.8564 35.5106 44.8164 35.6142 44.8179C35.6556 44.8179 35.6978 44.8195 35.7408 44.8226C35.8587 44.8321 35.9766 44.8384 36.0945 44.8415L36.441 44.8462C36.6577 44.8478 36.9779 44.8423 37.4016 44.8297C37.5307 44.8281 37.6263 44.825 37.6884 44.8203L37.784 44.8179C37.8541 44.8195 37.8883 44.8368 37.8867 44.8698C37.8851 44.8934 37.8788 44.9154 37.8676 44.9358L37.7553 45.1267L36.3167 47.6397L36.2188 47.8189C36.2044 47.844 36.1973 47.866 36.1973 47.8849L36.202 47.9132C36.2148 47.9399 36.2339 47.9525 36.2594 47.9509C36.3343 47.9603 36.4227 47.965 36.5246 47.965C36.8257 47.965 37.0504 47.9501 37.1985 47.9202C37.3993 47.8794 37.5841 47.7584 37.7529 47.5572L37.8389 47.4535C37.8708 47.4173 37.8987 47.3993 37.9226 47.3993C37.9736 47.3977 37.9991 47.4393 37.9991 47.5242C37.9959 47.7034 37.925 47.8715 37.7864 48.0287C37.6637 48.1685 37.498 48.2377 37.2893 48.2361C37.1953 48.2361 37.0774 48.2322 36.9357 48.2243L36.4936 48.2125C36.2753 48.2094 36.1256 48.2078 36.0443 48.2078C35.8276 48.2094 35.6484 48.2165 35.5066 48.229C35.4588 48.2353 35.4246 48.2377 35.4039 48.2361C35.3433 48.2361 35.3123 48.2125 35.3107 48.1654C35.3123 48.1277 35.3457 48.0601 35.4111 47.9627C35.4588 47.8888 35.5146 47.7976 35.5783 47.6892L36.8687 45.4214Z" fill="white"/>
<path d="M38.9095 47.965C38.8697 47.932 38.8362 47.9006 38.8092 47.8707C38.4603 47.5376 38.285 47.1164 38.2834 46.6072C38.2834 46.0697 38.4475 45.6281 38.7757 45.2823C39.0895 44.9523 39.5348 44.7857 40.1115 44.7826C40.5958 44.7826 40.9933 44.9389 41.304 45.2517C41.4776 45.4277 41.6011 45.6281 41.6744 45.8528C41.7269 46.0147 41.7532 46.2017 41.7532 46.4139C41.7516 46.692 41.7086 46.9411 41.6242 47.1612C41.5206 47.4299 41.3581 47.6586 41.1367 47.8472C40.9774 47.9839 40.8005 48.09 40.6062 48.1654L40.4532 48.2196L40.5871 48.3068C40.689 48.376 40.7822 48.4349 40.8667 48.4836C40.9527 48.5324 41.0435 48.5709 41.1391 48.5992C41.2076 48.6227 41.2721 48.6337 41.3326 48.6322C41.4091 48.6337 41.5007 48.6007 41.6074 48.5331C41.6345 48.5159 41.6576 48.5072 41.6767 48.5072C41.7245 48.5119 41.7492 48.5363 41.7508 48.5803C41.7508 48.6463 41.6441 48.7492 41.4306 48.8891C41.2713 48.996 41.1104 49.0502 40.9479 49.0518C40.8619 49.0518 40.7822 49.04 40.7089 49.0164C40.607 48.9866 40.501 48.941 40.3911 48.8797C40.2509 48.8058 40.1059 48.7202 39.9562 48.6227C39.8734 48.5709 39.7626 48.4962 39.624 48.3988C39.5316 48.3359 39.4488 48.2833 39.3755 48.2408C39.3086 48.2031 39.2481 48.1843 39.1939 48.1843C39.0298 48.1905 38.9063 48.2927 38.8235 48.4907C38.7964 48.552 38.7789 48.6125 38.7709 48.6722C38.7582 48.7508 38.7303 48.7909 38.6873 48.7925H38.6634C38.6108 48.783 38.5837 48.7249 38.5821 48.618C38.5805 48.464 38.6212 48.3218 38.704 48.1913C38.7438 48.1269 38.7964 48.0656 38.8617 48.0075L38.9095 47.965ZM38.8976 46.3172C38.896 46.7651 38.9748 47.1376 39.1341 47.4346C39.3524 47.8448 39.6559 48.0515 40.0446 48.0546C40.3744 48.0562 40.642 47.9226 40.8475 47.6538C41.0387 47.4071 41.1359 47.07 41.1391 46.6425C41.1391 46.4037 41.104 46.1742 41.0339 45.9542C40.9431 45.6744 40.8085 45.456 40.6301 45.2988C40.4214 45.115 40.1824 45.0238 39.9132 45.0254C39.7921 45.0254 39.675 45.045 39.5619 45.0843C39.2481 45.1912 39.0497 45.412 38.9669 45.7467C38.9191 45.9306 38.896 46.1208 38.8976 46.3172Z" fill="white"/>
<path d="M42.1619 47.2578C42.1475 47.1918 42.1403 47.1392 42.1403 47.0999C42.1403 47.0543 42.1603 47.0244 42.2001 47.0103L42.2312 47.0056C42.2805 47.0071 42.318 47.0425 42.3435 47.1117C42.3785 47.2185 42.4104 47.301 42.4391 47.3592C42.6398 47.8008 42.9226 48.024 43.2874 48.0287C43.4642 48.0287 43.6148 47.9721 43.739 47.8589C43.8649 47.7442 43.9286 47.5981 43.9302 47.4205C43.9318 47.2146 43.8466 47.0637 43.6745 46.9679C43.5821 46.916 43.4642 46.861 43.3208 46.8028C43.1934 46.7541 43.0636 46.6991 42.9313 46.6378C42.7991 46.575 42.6884 46.5137 42.5992 46.4539C42.3554 46.2952 42.2343 46.0556 42.2359 45.7349C42.2343 45.4631 42.3267 45.2368 42.5131 45.056C42.6995 44.8753 42.9281 44.7841 43.199 44.7826C43.3423 44.781 43.5112 44.8195 43.7056 44.8981C43.7773 44.9295 43.8386 44.9531 43.8896 44.9688C43.9135 44.9782 43.9406 44.9822 43.9708 44.9806C44.0059 44.9822 44.0553 44.9664 44.119 44.9334C44.1429 44.9224 44.1644 44.9162 44.1835 44.9146C44.217 44.9146 44.2401 44.9342 44.2528 44.9735L44.2576 45.0277L44.2504 45.1763C44.2488 45.2627 44.252 45.3334 44.26 45.3884L44.2887 45.6218C44.2998 45.7098 44.3054 45.7774 44.3054 45.8245C44.3038 45.8953 44.2791 45.9306 44.2313 45.9306C44.1708 45.929 44.1277 45.889 44.1023 45.8104L44.064 45.6878C44.0497 45.6454 44.0346 45.6053 44.0186 45.5676C43.9836 45.4906 43.935 45.4159 43.8729 45.3436C43.6865 45.1299 43.465 45.0238 43.2085 45.0254C43.054 45.027 42.9281 45.067 42.831 45.1456C42.7226 45.2352 42.6693 45.3515 42.6708 45.4945C42.6708 45.6658 42.7633 45.8017 42.9481 45.9023C43.0643 45.9668 43.199 46.0288 43.3519 46.0886C43.5431 46.1656 43.7048 46.2379 43.837 46.3054C43.9437 46.362 44.0385 46.4359 44.1214 46.527C44.2823 46.7062 44.3635 46.9317 44.3651 47.2036C44.3651 47.5038 44.2679 47.7544 44.0736 47.9556C43.8744 48.1662 43.6259 48.2715 43.328 48.2715C43.1719 48.2715 43.0046 48.2416 42.8262 48.1819L42.6422 48.1206C42.6071 48.1112 42.5561 48.0994 42.4892 48.0852C42.4398 48.0774 42.4032 48.0664 42.3793 48.0522C42.3395 48.0287 42.3124 47.976 42.2981 47.8943L42.1619 47.2578Z" fill="white"/>
<path d="M44.8239 44.9476C44.8287 44.858 44.8773 44.8148 44.9697 44.8179L45.2684 44.8297C45.4676 44.8423 45.6364 44.8478 45.775 44.8462H46.3987H47.0248C47.2032 44.8431 47.3713 44.8376 47.529 44.8297C47.666 44.8234 47.7664 44.8195 47.8301 44.8179C47.9178 44.8148 47.9655 44.858 47.9735 44.9476L48.038 45.5157L48.0548 45.6878C48.0532 45.7444 48.0213 45.7727 47.9592 45.7727C47.913 45.7742 47.8771 45.7436 47.8516 45.6807C47.8277 45.6242 47.8038 45.5479 47.78 45.4521C47.7322 45.276 47.6485 45.17 47.529 45.1338C47.4319 45.1024 47.2909 45.0875 47.1061 45.089H46.8767C46.8082 45.089 46.762 45.0992 46.7381 45.1197C46.7158 45.1401 46.7062 45.1841 46.7094 45.2517L46.707 45.6006V47.2696L46.7142 47.5454C46.7221 47.7434 46.75 47.8668 46.7978 47.9155C46.8472 47.9642 46.9675 48.013 47.1586 48.0617C47.2303 48.079 47.2662 48.1112 47.2662 48.1583C47.263 48.2102 47.2335 48.2361 47.1778 48.2361L47.0439 48.2267C46.9945 48.2235 46.9053 48.2196 46.7763 48.2149L46.3796 48.2078L46.0235 48.2149C45.8929 48.2196 45.8037 48.2235 45.7559 48.2267L45.6221 48.2361C45.5663 48.2377 45.5369 48.2102 45.5337 48.1536C45.5321 48.108 45.5711 48.0774 45.6508 48.0617C45.8292 48.0192 45.9455 47.9682 45.9997 47.9084C46.0474 47.855 46.0761 47.7324 46.0857 47.5407L46.0928 47.2696V45.6006V45.2517C46.0944 45.1448 46.0427 45.0906 45.9375 45.089H45.7009C45.6038 45.089 45.513 45.093 45.4285 45.1008C45.3043 45.1134 45.2135 45.1448 45.1561 45.1951C45.0987 45.2454 45.0533 45.3311 45.0199 45.4521C44.9912 45.5495 44.9673 45.6257 44.9482 45.6807C44.9243 45.742 44.8893 45.7727 44.8431 45.7727C44.7777 45.7758 44.7451 45.7475 44.7451 45.6878C44.7451 45.6579 44.7499 45.6006 44.7594 45.5157L44.8239 44.9476Z" fill="white"/>
<path d="M48.7263 45.5346L48.7215 45.3177C48.7167 45.2281 48.7016 45.166 48.6761 45.1315C48.6506 45.0953 48.5916 45.0623 48.4992 45.0325C48.4467 45.0167 48.3973 45.0034 48.3511 44.9924C48.2666 44.9719 48.2244 44.9405 48.2244 44.8981C48.2228 44.8462 48.2611 44.8195 48.3391 44.8179L48.516 44.8274C48.6737 44.8399 48.8123 44.8462 48.9318 44.8462C49.0178 44.8462 49.1221 44.8431 49.2448 44.8368L49.5722 44.8179C49.6471 44.8179 49.6837 44.8462 49.6821 44.9028L49.675 44.9382C49.6638 44.9617 49.6359 44.9798 49.5913 44.9924C49.483 45.0207 49.4145 45.0733 49.3858 45.1503C49.3603 45.2116 49.3468 45.2988 49.3452 45.412L49.3404 45.5487V46.6048C49.342 46.8296 49.3508 47.0001 49.3667 47.1164C49.3906 47.3002 49.4527 47.4566 49.5531 47.5855C49.7443 47.8417 50.0246 47.969 50.3942 47.9674C51.0665 47.9642 51.433 47.5525 51.4935 46.7321C51.5015 46.6268 51.5054 46.5302 51.5054 46.4422V45.7962C51.507 45.6171 51.4991 45.4662 51.4815 45.3436C51.4672 45.2462 51.4417 45.1763 51.4051 45.1338C51.37 45.0898 51.3039 45.0529 51.2067 45.023C51.1573 45.0089 51.1088 44.9987 51.061 44.9924C50.9845 44.9861 50.9463 44.9547 50.9463 44.8981C50.9478 44.8446 50.9797 44.8179 51.0418 44.8179C51.0721 44.8195 51.1279 44.825 51.2091 44.8344C51.2649 44.8423 51.3493 44.8462 51.4624 44.8462C51.6504 44.8478 51.8089 44.8391 51.938 44.8203C51.9475 44.8187 51.9658 44.8179 51.9929 44.8179C52.0614 44.8211 52.0949 44.8486 52.0933 44.9004C52.0933 44.9507 52.0614 44.9814 51.9977 44.9924C51.8782 45.0191 51.8057 45.0882 51.7802 45.1998C51.7627 45.28 51.754 45.3861 51.754 45.5181L51.7516 45.808V46.4492C51.7516 46.5687 51.7468 46.6897 51.7372 46.8123C51.6958 47.2979 51.5437 47.6601 51.2808 47.899C51.0116 48.1473 50.6412 48.2715 50.1696 48.2715C49.6996 48.2715 49.342 48.1615 49.0967 47.9414C48.9469 47.8079 48.8489 47.6491 48.8027 47.4653C48.7613 47.3065 48.7374 47.1195 48.731 46.9042C48.7263 46.7801 48.7247 46.6763 48.7263 46.593V45.5346Z" fill="white"/>
<path d="M52.7959 45.5911C52.7959 45.5204 52.7927 45.4505 52.7863 45.3813C52.7767 45.2713 52.7473 45.1888 52.6979 45.1338C52.6628 45.0945 52.5824 45.056 52.4565 45.0183L52.3729 44.9924C52.3139 44.9735 52.2877 44.946 52.294 44.9099C52.2877 44.8501 52.3259 44.8195 52.4087 44.8179L52.662 44.8391C52.7082 44.8454 52.807 44.8478 52.9584 44.8462C53.1575 44.8478 53.3399 44.8446 53.5056 44.8368L54.005 44.8179C54.5626 44.8179 54.9959 44.9382 55.305 45.1786C55.6826 45.4709 55.8721 45.8654 55.8737 46.362C55.8737 46.626 55.8188 46.8822 55.7089 47.1305C55.3855 47.8644 54.7856 48.233 53.9094 48.2361L53.5056 48.2149C53.4164 48.2118 53.3184 48.2094 53.2117 48.2078C53.0778 48.2094 52.8867 48.218 52.6381 48.2338C52.6158 48.2369 52.5927 48.2377 52.5688 48.2361C52.494 48.2393 52.4557 48.2125 52.4541 48.156C52.4541 48.1183 52.4796 48.0868 52.5306 48.0617C52.5688 48.046 52.5983 48.0318 52.619 48.0192C52.6955 47.9831 52.7441 47.9328 52.7648 47.8684C52.7791 47.8228 52.7887 47.7513 52.7935 47.6538C52.7951 47.6083 52.7959 47.5462 52.7959 47.4676V45.5911ZM53.41 47.1376C53.41 47.4613 53.4243 47.6649 53.453 47.7481C53.5072 47.9132 53.6808 47.9949 53.974 47.9933C54.5921 47.9949 54.9904 47.7254 55.1688 47.1847C55.2293 47.0024 55.2596 46.8028 55.2596 46.586C55.2596 46.4131 55.2413 46.2567 55.2046 46.1168C55.1266 45.8277 54.9832 45.5849 54.7745 45.3884C54.5658 45.192 54.3077 45.0843 54.0002 45.0655L53.8067 45.0607C53.6553 45.0607 53.5542 45.078 53.5032 45.1126C53.4427 45.1535 53.4116 45.247 53.41 45.3931V45.6383V47.1376Z" fill="white"/>
<path d="M56.7149 45.5629L56.6026 45.3578C56.4895 45.1629 56.3549 45.0411 56.1987 44.9924C56.1589 44.9814 56.131 44.9688 56.1151 44.9547L56.0984 44.9311L56.0936 44.8981C56.0968 44.8431 56.1286 44.8164 56.1892 44.8179L56.2872 44.825C56.405 44.8391 56.5628 44.8462 56.7603 44.8462C56.9467 44.8478 57.102 44.8423 57.2263 44.8297L57.3983 44.8179H57.4294C57.4756 44.8211 57.5043 44.8391 57.5154 44.8722L57.5202 44.9004C57.5202 44.9429 57.5019 44.9735 57.4653 44.9924C57.443 45.0049 57.4127 45.0152 57.3745 45.023C57.2805 45.045 57.2335 45.0867 57.2335 45.148C57.2335 45.2014 57.2717 45.2988 57.3482 45.4403L57.8022 46.3266L57.8452 46.395C57.8548 46.4076 57.8667 46.417 57.8811 46.4233L57.905 46.428C57.9273 46.4264 57.948 46.4147 57.9671 46.3927C57.9782 46.3785 57.991 46.3581 58.0053 46.3314L58.4402 45.5275C58.4992 45.4175 58.5295 45.3318 58.531 45.2705C58.5279 45.1495 58.4076 45.0568 58.1702 44.9924C58.0969 44.9782 58.0627 44.9492 58.0675 44.9052C58.0675 44.8501 58.1017 44.8211 58.1702 44.8179C58.21 44.8195 58.2618 44.8234 58.3255 44.8297C58.4132 44.8423 58.5191 44.8478 58.6434 44.8462C58.7405 44.8478 58.8353 44.8446 58.9277 44.8368C58.9883 44.8336 59.0456 44.8281 59.0998 44.8203C59.1109 44.8187 59.1269 44.8179 59.1476 44.8179C59.2113 44.8164 59.2424 44.8431 59.2408 44.8981C59.2392 44.9389 59.2129 44.9704 59.1619 44.9924C59.0185 45.0584 58.8967 45.1794 58.7963 45.3554L58.6171 45.676L58.0914 46.6355C58.0579 46.6936 58.0396 46.7376 58.0364 46.7675C58.0332 46.7769 58.0324 46.8099 58.034 46.8665V47.3474L58.0412 47.536C58.0428 47.6256 58.0515 47.7041 58.0675 47.7717C58.0866 47.8802 58.1559 47.9548 58.2754 47.9957C58.3423 48.0224 58.4124 48.0444 58.4856 48.0617C58.5573 48.079 58.5932 48.1112 58.5932 48.1583C58.59 48.2102 58.5605 48.2361 58.5048 48.2361L58.3709 48.2267C58.3216 48.2235 58.2331 48.2196 58.1057 48.2149L57.7066 48.2078L57.3506 48.2149C57.2215 48.2196 57.1331 48.2235 57.0853 48.2267C57.0295 48.233 56.9841 48.2361 56.9491 48.2361C56.8933 48.2377 56.8639 48.2102 56.8607 48.1536C56.8591 48.108 56.8981 48.0774 56.9778 48.0617C57.1514 48.0224 57.2669 47.9705 57.3243 47.9061C57.3752 47.8511 57.4047 47.7293 57.4127 47.5407L57.4199 47.3474V46.9537V46.8712C57.4135 46.8492 57.4047 46.8248 57.3936 46.7981L57.3219 46.6661L56.7149 45.5629Z" fill="white"/>
<path d="M36.9511 50.8445C37.2178 50.8445 37.4486 50.9447 37.6436 51.145C37.8396 51.3443 37.9376 51.5935 37.9376 51.8925C37.9376 52.2004 37.8391 52.4561 37.6421 52.6594C37.4451 52.8627 37.2067 52.9643 36.9268 52.9643C36.644 52.9643 36.4061 52.8652 36.2131 52.6668C36.0211 52.4685 35.9252 52.2119 35.9252 51.897C35.9252 51.575 36.0363 51.3124 36.2586 51.1091C36.4515 50.9327 36.6824 50.8445 36.9511 50.8445ZM36.9223 50.9537C36.7384 50.9537 36.5909 51.0209 36.4798 51.1555C36.3414 51.3229 36.2722 51.5681 36.2722 51.891C36.2722 52.2218 36.3439 52.4765 36.4874 52.6549C36.5975 52.7904 36.743 52.8582 36.9238 52.8582C37.1168 52.8582 37.2759 52.7839 37.4012 52.6354C37.5275 52.4869 37.5906 52.2527 37.5906 51.9328C37.5906 51.586 37.5214 51.3274 37.383 51.157C37.2719 51.0214 37.1183 50.9537 36.9223 50.9537Z" fill="white"/>
<path d="M38.5604 51.7983C38.7231 51.6049 38.8782 51.5083 39.0257 51.5083C39.1014 51.5083 39.1666 51.5272 39.2212 51.5651C39.2757 51.602 39.3192 51.6632 39.3515 51.749C39.3737 51.8088 39.3848 51.9004 39.3848 52.024V52.6085C39.3848 52.6952 39.3919 52.754 39.406 52.7849C39.4171 52.8098 39.4348 52.8293 39.4591 52.8432C39.4843 52.8572 39.5303 52.8642 39.597 52.8642V52.918H38.9105V52.8642H38.9393C39.004 52.8642 39.0489 52.8547 39.0742 52.8358C39.1004 52.8158 39.1186 52.7869 39.1287 52.7491C39.1328 52.7341 39.1348 52.6873 39.1348 52.6085V52.0479C39.1348 51.9234 39.1181 51.8332 39.0848 51.7774C39.0524 51.7206 38.9974 51.6921 38.9196 51.6921C38.7994 51.6921 38.6797 51.7569 38.5604 51.8865V52.6085C38.5604 52.7012 38.566 52.7585 38.5771 52.7804C38.5913 52.8093 38.6105 52.8308 38.6347 52.8447C38.66 52.8577 38.7105 52.8642 38.7862 52.8642V52.918H38.0998V52.8642H38.1301C38.2008 52.8642 38.2483 52.8467 38.2725 52.8118C38.2978 52.776 38.3104 52.7082 38.3104 52.6085V52.1003C38.3104 51.9358 38.3064 51.8357 38.2983 51.7998C38.2912 51.7639 38.2796 51.7395 38.2634 51.7265C38.2483 51.7136 38.2276 51.7071 38.2013 51.7071C38.173 51.7071 38.1392 51.7146 38.0998 51.7295L38.077 51.6757L38.4953 51.5083H38.5604V51.7983Z" fill="white"/>
<path d="M40.185 50.7922V52.6085C40.185 52.6942 40.191 52.751 40.2031 52.779C40.2163 52.8069 40.236 52.8283 40.2622 52.8432C40.2885 52.8572 40.3375 52.8642 40.4092 52.8642V52.918H39.7288V52.8642C39.7925 52.8642 39.8359 52.8577 39.8591 52.8447C39.8824 52.8318 39.9006 52.8103 39.9137 52.7804C39.9268 52.7505 39.9334 52.6932 39.9334 52.6085V51.3648C39.9334 51.2103 39.9299 51.1156 39.9228 51.0807C39.9157 51.0448 39.9041 51.0204 39.8879 51.0075C39.8728 50.9945 39.8531 50.988 39.8288 50.988C39.8026 50.988 39.7692 50.996 39.7288 51.012L39.7031 50.9596L40.1168 50.7922H40.185Z" fill="white"/>
<path d="M40.9245 50.7922C40.9669 50.7922 41.0028 50.8072 41.0321 50.8371C41.0624 50.866 41.0775 50.9013 41.0775 50.9432C41.0775 50.9851 41.0624 51.0209 41.0321 51.0508C41.0028 51.0807 40.9669 51.0957 40.9245 51.0957C40.882 51.0957 40.8457 51.0807 40.8154 51.0508C40.785 51.0209 40.7699 50.9851 40.7699 50.9432C40.7699 50.9013 40.7845 50.866 40.8138 50.8371C40.8441 50.8072 40.881 50.7922 40.9245 50.7922ZM41.0502 51.5083V52.6085C41.0502 52.6942 41.0563 52.7515 41.0684 52.7804C41.0816 52.8084 41.1002 52.8293 41.1245 52.8432C41.1498 52.8572 41.1952 52.8642 41.2609 52.8642V52.918H40.5865V52.8642C40.6542 52.8642 40.6997 52.8577 40.7229 52.8447C40.7462 52.8318 40.7643 52.8103 40.7775 52.7804C40.7916 52.7505 40.7987 52.6932 40.7987 52.6085V52.0808C40.7987 51.9323 40.7941 51.8362 40.785 51.7923C40.778 51.7604 40.7669 51.7385 40.7517 51.7265C40.7366 51.7136 40.7158 51.7071 40.6896 51.7071C40.6613 51.7071 40.6269 51.7146 40.5865 51.7295L40.5653 51.6757L40.9836 51.5083H41.0502Z" fill="white"/>
<path d="M41.8398 51.7983C42.0024 51.6049 42.1575 51.5083 42.305 51.5083C42.3808 51.5083 42.4459 51.5272 42.5005 51.5651C42.555 51.602 42.5985 51.6632 42.6308 51.749C42.653 51.8088 42.6641 51.9004 42.6641 52.024V52.6085C42.6641 52.6952 42.6712 52.754 42.6854 52.7849C42.6965 52.8098 42.7141 52.8293 42.7384 52.8432C42.7637 52.8572 42.8096 52.8642 42.8763 52.8642V52.918H42.1898V52.8642H42.2186C42.2833 52.8642 42.3282 52.8547 42.3535 52.8358C42.3797 52.8158 42.3979 52.7869 42.408 52.7491C42.4121 52.7341 42.4141 52.6873 42.4141 52.6085V52.0479C42.4141 51.9234 42.3974 51.8332 42.3641 51.7774C42.3318 51.7206 42.2767 51.6921 42.1989 51.6921C42.0787 51.6921 41.959 51.7569 41.8398 51.8865V52.6085C41.8398 52.7012 41.8453 52.7585 41.8564 52.7804C41.8706 52.8093 41.8898 52.8308 41.914 52.8447C41.9393 52.8577 41.9898 52.8642 42.0656 52.8642V52.918H41.3791V52.8642H41.4094C41.4801 52.8642 41.5276 52.8467 41.5518 52.8118C41.5771 52.776 41.5897 52.7082 41.5897 52.6085V52.1003C41.5897 51.9358 41.5857 51.8357 41.5776 51.7998C41.5705 51.7639 41.5589 51.7395 41.5427 51.7265C41.5276 51.7136 41.5069 51.7071 41.4806 51.7071C41.4523 51.7071 41.4185 51.7146 41.3791 51.7295L41.3564 51.6757L41.7746 51.5083H41.8398V51.7983Z" fill="white"/>
<path d="M43.2203 52.0644C43.2193 52.2677 43.2693 52.4271 43.3703 52.5428C43.4713 52.6584 43.59 52.7162 43.7264 52.7162C43.8174 52.7162 43.8962 52.6917 43.9628 52.6429C44.0305 52.5931 44.0871 52.5084 44.1326 52.3888L44.1795 52.4187C44.1583 52.5552 44.0967 52.6798 43.9947 52.7924C43.8926 52.904 43.7648 52.9598 43.6113 52.9598C43.4446 52.9598 43.3016 52.8961 43.1824 52.7685C43.0642 52.6399 43.0051 52.4675 43.0051 52.2512C43.0051 52.017 43.0657 51.8347 43.187 51.7041C43.3092 51.5726 43.4622 51.5068 43.6461 51.5068C43.8017 51.5068 43.9295 51.5576 44.0295 51.6593C44.1295 51.7599 44.1795 51.895 44.1795 52.0644H43.2203ZM43.2203 51.9777H43.8628C43.8578 51.89 43.8472 51.8282 43.831 51.7923C43.8057 51.7365 43.7679 51.6926 43.7173 51.6608C43.6678 51.6289 43.6158 51.6129 43.5613 51.6129C43.4774 51.6129 43.4021 51.6453 43.3355 51.7101C43.2698 51.7739 43.2314 51.8631 43.2203 51.9777Z" fill="white"/>
<path d="M46.0389 51.5083V51.9747H45.9889C45.9505 51.8282 45.901 51.7285 45.8404 51.6757C45.7808 51.6229 45.7045 51.5965 45.6116 51.5965C45.5409 51.5965 45.4838 51.6149 45.4403 51.6518C45.3969 51.6887 45.3752 51.7295 45.3752 51.7744C45.3752 51.8302 45.3913 51.878 45.4237 51.9179C45.455 51.9587 45.5186 52.0021 45.6146 52.0479L45.8359 52.1541C46.0409 52.2527 46.1435 52.3828 46.1435 52.5443C46.1435 52.6688 46.0955 52.7695 45.9995 52.8462C45.9046 52.922 45.798 52.9598 45.6798 52.9598C45.5949 52.9598 45.4979 52.9449 45.3888 52.915C45.3555 52.905 45.3282 52.9 45.307 52.9C45.2838 52.9 45.2656 52.913 45.2524 52.9389H45.2024V52.4501H45.2524C45.2807 52.5896 45.3348 52.6947 45.4146 52.7655C45.4944 52.8363 45.5838 52.8716 45.6828 52.8716C45.7525 52.8716 45.8091 52.8517 45.8525 52.8118C45.897 52.771 45.9192 52.7221 45.9192 52.6653C45.9192 52.5966 45.8945 52.5388 45.845 52.4919C45.7965 52.4451 45.699 52.3858 45.5525 52.314C45.406 52.2423 45.31 52.1775 45.2646 52.1197C45.2191 52.0629 45.1964 51.9911 45.1964 51.9044C45.1964 51.7918 45.2353 51.6976 45.3131 51.6219C45.3919 51.5461 45.4934 51.5083 45.6176 51.5083C45.6722 51.5083 45.7384 51.5197 45.8162 51.5427C45.8677 51.5576 45.902 51.5651 45.9192 51.5651C45.9354 51.5651 45.948 51.5616 45.9571 51.5546C45.9662 51.5476 45.9768 51.5322 45.9889 51.5083H46.0389Z" fill="white"/>
<path d="M47.5301 52.3977C47.4927 52.5781 47.4195 52.7172 47.3103 52.8148C47.2012 52.9115 47.0805 52.9598 46.9482 52.9598C46.7906 52.9598 46.6532 52.8946 46.536 52.764C46.4188 52.6334 46.3602 52.457 46.3602 52.2348C46.3602 52.0195 46.4248 51.8446 46.5542 51.7101C46.6845 51.5755 46.8406 51.5083 47.0224 51.5083C47.1588 51.5083 47.2709 51.5442 47.3588 51.6159C47.4467 51.6867 47.4907 51.7604 47.4907 51.8372C47.4907 51.875 47.478 51.9059 47.4528 51.9298C47.4285 51.9528 47.3942 51.9642 47.3497 51.9642C47.2901 51.9642 47.2452 51.9453 47.2149 51.9074C47.1977 51.8865 47.1861 51.8466 47.18 51.7878C47.175 51.729 47.1548 51.6842 47.1194 51.6533C47.084 51.6234 47.035 51.6084 46.9724 51.6084C46.8714 51.6084 46.7901 51.6453 46.7284 51.7191C46.6466 51.8167 46.6057 51.9458 46.6057 52.1062C46.6057 52.2697 46.6461 52.4142 46.7269 52.5398C46.8087 52.6643 46.9189 52.7266 47.0573 52.7266C47.1563 52.7266 47.2452 52.6932 47.324 52.6265C47.3795 52.5806 47.4336 52.4974 47.4861 52.3768L47.5301 52.3977Z" fill="white"/>
<path d="M48.1378 50.7922V51.7938C48.2499 51.6722 48.3388 51.5945 48.4045 51.5606C48.4701 51.5257 48.5358 51.5083 48.6015 51.5083C48.6803 51.5083 48.748 51.5297 48.8045 51.5726C48.8611 51.6154 48.903 51.6827 48.9303 51.7744C48.9495 51.8382 48.9591 51.9548 48.9591 52.1242V52.6085C48.9591 52.6952 48.9662 52.7545 48.9803 52.7864C48.9904 52.8103 49.0076 52.8293 49.0318 52.8432C49.0561 52.8572 49.1005 52.8642 49.1652 52.8642V52.918H48.4833V52.8642H48.5151C48.5797 52.8642 48.6247 52.8547 48.65 52.8358C48.6752 52.8158 48.6929 52.7869 48.703 52.7491C48.706 52.7331 48.7075 52.6863 48.7075 52.6085V52.1242C48.7075 51.9747 48.6995 51.8765 48.6833 51.8297C48.6681 51.7828 48.6434 51.748 48.609 51.725C48.5747 51.7011 48.5333 51.6892 48.4848 51.6892C48.4353 51.6892 48.3838 51.7021 48.3302 51.728C48.2767 51.7539 48.2125 51.8063 48.1378 51.885V52.6085C48.1378 52.7022 48.1428 52.7605 48.1529 52.7834C48.164 52.8064 48.1837 52.8258 48.212 52.8417C48.2413 52.8567 48.2913 52.8642 48.362 52.8642V52.918H47.674V52.8642C47.7357 52.8642 47.7842 52.8547 47.8195 52.8358C47.8397 52.8258 47.8559 52.8069 47.868 52.779C47.8801 52.751 47.8862 52.6942 47.8862 52.6085V51.3692C47.8862 51.2128 47.8822 51.1166 47.8741 51.0807C47.867 51.0448 47.8554 51.0204 47.8392 51.0075C47.8241 50.9945 47.8034 50.988 47.7771 50.988C47.7559 50.988 47.7215 50.996 47.674 51.012L47.6528 50.9596L48.068 50.7922H48.1378Z" fill="white"/>
<path d="M49.9608 51.5083C50.1709 51.5083 50.3396 51.587 50.4669 51.7445C50.575 51.879 50.6291 52.0335 50.6291 52.2079C50.6291 52.3305 50.5993 52.4546 50.5397 52.5801C50.48 52.7057 50.3977 52.8004 50.2926 52.8642C50.1886 52.9279 50.0724 52.9598 49.9441 52.9598C49.735 52.9598 49.5688 52.8776 49.4455 52.7132C49.3415 52.5746 49.2895 52.4192 49.2895 52.2468C49.2895 52.1212 49.3208 51.9966 49.3834 51.873C49.4471 51.7485 49.5304 51.6568 49.6334 51.598C49.7365 51.5382 49.8456 51.5083 49.9608 51.5083ZM49.9138 51.6054C49.8603 51.6054 49.8062 51.6214 49.7516 51.6533C49.6981 51.6842 49.6547 51.739 49.6213 51.8177C49.588 51.8965 49.5713 51.9976 49.5713 52.1212C49.5713 52.3205 49.6112 52.4924 49.691 52.6369C49.7719 52.7814 49.8779 52.8537 50.0093 52.8537C50.1073 52.8537 50.1881 52.8138 50.2517 52.7341C50.3154 52.6544 50.3472 52.5173 50.3472 52.323C50.3472 52.0798 50.2942 51.8885 50.1881 51.749C50.1164 51.6533 50.0249 51.6054 49.9138 51.6054Z" fill="white"/>
<path d="M51.5125 51.5083C51.7227 51.5083 51.8914 51.587 52.0187 51.7445C52.1268 51.879 52.1808 52.0335 52.1808 52.2079C52.1808 52.3305 52.151 52.4546 52.0914 52.5801C52.0318 52.7057 51.9495 52.8004 51.8444 52.8642C51.7404 52.9279 51.6242 52.9598 51.4959 52.9598C51.2867 52.9598 51.1206 52.8776 50.9973 52.7132C50.8932 52.5746 50.8412 52.4192 50.8412 52.2468C50.8412 52.1212 50.8725 51.9966 50.9352 51.873C50.9988 51.7485 51.0822 51.6568 51.1852 51.598C51.2883 51.5382 51.3974 51.5083 51.5125 51.5083ZM51.4656 51.6054C51.412 51.6054 51.358 51.6214 51.3034 51.6533C51.2499 51.6842 51.2064 51.739 51.1731 51.8177C51.1398 51.8965 51.1231 51.9976 51.1231 52.1212C51.1231 52.3205 51.163 52.4924 51.2428 52.6369C51.3236 52.7814 51.4297 52.8537 51.561 52.8537C51.659 52.8537 51.7398 52.8138 51.8035 52.7341C51.8671 52.6544 51.899 52.5173 51.899 52.323C51.899 52.0798 51.8459 51.8885 51.7398 51.749C51.6681 51.6533 51.5767 51.6054 51.4656 51.6054Z" fill="white"/>
<path d="M52.8628 50.7922V52.6085C52.8628 52.6942 52.8688 52.751 52.8809 52.779C52.8941 52.8069 52.9138 52.8283 52.94 52.8432C52.9663 52.8572 53.0153 52.8642 53.087 52.8642V52.918H52.4066V52.8642C52.4703 52.8642 52.5137 52.8577 52.5369 52.8447C52.5602 52.8318 52.5784 52.8103 52.5915 52.7804C52.6046 52.7505 52.6112 52.6932 52.6112 52.6085V51.3648C52.6112 51.2103 52.6077 51.1156 52.6006 51.0807C52.5935 51.0448 52.5819 51.0204 52.5657 51.0075C52.5506 50.9945 52.5309 50.988 52.5066 50.988C52.4804 50.988 52.447 50.996 52.4066 51.012L52.3809 50.9596L52.7946 50.7922H52.8628Z" fill="white"/>
</g>
<defs>
<filter id="filter0_d" x="0" y="0" width="89" height="105" filterUnits="userSpaceOnUse" color-interpolation-filters="sRGB">
<feFlood flood-opacity="0" result="BackgroundImageFix"/>
<feColorMatrix in="SourceAlpha" type="matrix" values="0 0 0 0 0 0 0 0 0 0 0 0 0 0 0 0 0 0 127 0"/>
<feOffset dy="10"/>
<feGaussianBlur stdDeviation="10"/>
<feColorMatrix type="matrix" values="0 0 0 0 0 0 0 0 0 0 0 0 0 0 0 0 0 0 0.1 0"/>
<feBlend mode="normal" in2="BackgroundImageFix" result="effect1_dropShadow"/>
<feBlend mode="normal" in="SourceGraphic" in2="effect1_dropShadow" result="shape"/>
</filter>
</defs>
</svg>
