<svg width="49" height="65" viewBox="0 0 49 65" fill="none" xmlns="http://www.w3.org/2000/svg">
<path d="M0.477478 3.99979C7.56716 1.38124 26.863 -2.28472 47.3289 3.99979V51.5007L24.0519 62.8803L0.477478 51.5007V3.99979Z" fill="#25A9FA"/>
<path fill-rule="evenodd" clip-rule="evenodd" d="M3.25041 5.92307V51.1456L24.6181 61.4277L45.7496 51.1503V5.96931C27.7005 1.08955 10.5871 3.7222 3.25041 5.92307ZM1.09522 3.2402C8.33882 0.774394 27.6211 -2.60252 47.83 3.21674L49 3.55363V53.1454L24.6257 65L0 53.1501V3.61303L1.09522 3.2402Z" fill="white"/>
<path d="M24.529 15.3741C23.1554 15.4937 22.1427 14.4943 22.2635 13.1396C23.6371 13.02 24.6499 14.0194 24.529 15.3741Z" fill="white"/>
<path d="M24.5816 16.318C24.4631 16.2888 24.37 16.1898 24.3558 16.0631C24.2908 15.4826 24.4592 14.9123 24.8291 14.4567C25.1993 14.0012 25.7273 13.715 26.3154 13.6512C26.4804 13.6336 26.6285 13.7507 26.6463 13.9132C26.6645 14.0757 26.5457 14.2218 26.381 14.24C25.9521 14.2865 25.5674 14.4949 25.2975 14.827C25.0276 15.1591 24.9052 15.5747 24.9524 15.9978C24.9705 16.1606 24.8517 16.3067 24.6867 16.3248C24.6505 16.329 24.6151 16.3263 24.5816 16.318Z" fill="white"/>
<path d="M26.7452 15.375C26.4176 15.2889 26.0788 15.3068 25.7464 15.4123C24.8923 15.6839 23.9841 15.6839 23.13 15.4123C22.7976 15.3068 22.4588 15.2889 22.1312 15.375C20.8232 15.7188 20.1922 17.5854 20.7214 19.5445C21.2505 21.5035 22.7396 22.8126 24.0476 22.4689C24.0491 22.4686 24.0503 22.4683 24.0518 22.4677C24.306 22.4 24.5707 22.4 24.8249 22.4677C24.8264 22.468 24.8276 22.4683 24.8291 22.4689C26.1368 22.8126 27.6262 21.5032 28.1554 19.5445C28.6842 17.5854 28.0529 15.7188 26.7452 15.375Z" fill="white"/>
<path d="M28.2167 19.5393C27.6878 21.4981 26.1978 22.8069 24.8892 22.464H24.8862C24.6323 22.3954 24.3664 22.3954 24.1125 22.464H24.1095C23.6169 22.5922 23.1001 22.4879 22.6196 22.2046C25.1854 21.2268 27.1075 18.7582 27.5095 15.75C28.3224 16.4685 28.6398 17.9741 28.2167 19.5393Z" fill="white"/>
<path fill-rule="evenodd" clip-rule="evenodd" d="M32.7488 23.9275H18.1547V23.771H32.7488V23.9275Z" fill="white"/>
<path fill-rule="evenodd" clip-rule="evenodd" d="M32.9074 25.9622H18.1547V25.8057H32.9074V25.9622Z" fill="white"/>
<path fill-rule="evenodd" clip-rule="evenodd" d="M32.9074 24.8664H18.1547V24.71H32.9074V24.8664Z" fill="white"/>
<path fill-rule="evenodd" clip-rule="evenodd" d="M17.0443 22.7133C17.0443 22.5197 17.2046 22.3628 17.4023 22.3628H31.8261C32.027 22.3628 32.2108 22.4582 32.3501 22.5565C32.499 22.6615 32.646 22.8046 32.7814 22.9695C33.052 23.2995 33.3031 23.7502 33.4382 24.2514C33.5736 24.7538 33.5969 25.3253 33.3839 25.879C33.1688 26.4383 32.7261 26.9436 31.9958 27.3285C31.9437 27.356 31.8854 27.3704 31.8261 27.3704H17.4023C17.2046 27.3704 17.0443 27.2135 17.0443 27.0199C17.0443 26.8263 17.2046 26.6694 17.4023 26.6694H31.7335C32.283 26.3616 32.5741 25.9949 32.7138 25.6319C32.862 25.2467 32.8534 24.8292 32.7458 24.4302C32.638 24.0301 32.4351 23.667 32.2231 23.4086C32.117 23.2793 32.0155 23.1845 31.9315 23.1253C31.856 23.072 31.8195 23.0647 31.8197 23.0639C31.8197 23.0639 31.8197 23.0639 31.8197 23.0639L17.4023 23.0639C17.2046 23.0639 17.0443 22.9069 17.0443 22.7133Z" fill="white"/>
<path fill-rule="evenodd" clip-rule="evenodd" d="M31.0039 28.3088L16.2511 28.3088L16.2511 28.1523L31.0039 28.1523L31.0039 28.3088Z" fill="white"/>
<path fill-rule="evenodd" clip-rule="evenodd" d="M31.0039 29.404L16.0925 29.404L16.0925 29.2476L31.0039 29.2476L31.0039 29.404Z" fill="white"/>
<path fill-rule="evenodd" clip-rule="evenodd" d="M31.0039 30.343L16.0925 30.343L16.0925 30.1865L31.0039 30.1865L31.0039 30.343Z" fill="white"/>
<path fill-rule="evenodd" clip-rule="evenodd" d="M32.1143 27.1057C32.1143 26.9061 31.959 26.666 31.7593 26.666H17.1968C16.994 26.666 16.802 26.8426 16.6614 26.944C16.5109 27.0523 16.3625 27.1998 16.2259 27.37C15.9526 27.7102 15.6991 28.175 15.5627 28.6918C15.426 29.21 15.4025 29.7994 15.6176 30.3704C15.8348 30.9471 16.2817 31.4682 17.019 31.8652C17.0716 31.8935 17.1305 31.9084 17.1904 31.9084H31.7528C31.9525 31.9084 32.1143 31.7465 32.1143 31.5469C32.1143 31.3472 31.9525 31.1854 31.7528 31.1854H17.2839C16.7291 30.868 16.4351 30.4899 16.2941 30.1155C16.1445 29.7182 16.1532 29.2877 16.2618 28.8763C16.3707 28.4636 16.5755 28.0892 16.7896 27.8227C16.8966 27.6894 16.9991 27.5917 17.0839 27.5306C17.1602 27.4756 17.197 27.4681 17.1968 27.4673L31.7593 27.3702C31.959 27.3702 32.1143 27.3054 32.1143 27.1057Z" fill="white"/>
<path d="M10.2828 35.5654C10.2828 35.4947 10.2796 35.4248 10.2733 35.3556C10.2573 35.1607 10.1474 35.0397 9.9435 34.9926L9.85986 34.9714C9.8057 34.9588 9.77941 34.9328 9.781 34.8936C9.77782 34.8464 9.81685 34.8213 9.8981 34.8181C9.9204 34.8181 10.0032 34.8228 10.1466 34.8323C10.2916 34.8417 10.4525 34.8464 10.6293 34.8464C10.7886 34.848 10.9416 34.8441 11.0881 34.8346C11.2905 34.8236 11.4506 34.8181 11.5685 34.8181C11.8011 34.8181 12.005 34.8716 12.1802 34.9784C12.3109 35.0586 12.416 35.1749 12.4957 35.3273C12.5626 35.4562 12.596 35.5874 12.596 35.721C12.596 36.0039 12.4757 36.227 12.2352 36.3905C12.1938 36.4203 12.1508 36.4447 12.1061 36.4636C12.0631 36.4824 12.0416 36.5029 12.0416 36.5249C12.04 36.5374 12.0496 36.5618 12.0703 36.5979L12.1492 36.7488L12.6319 37.6093C12.7609 37.8434 12.8756 37.9629 12.976 37.9676C13.0063 37.9676 13.0453 37.9605 13.0931 37.9464L13.1313 37.9393C13.1775 37.9393 13.199 37.9644 13.1958 38.0147C13.1974 38.0823 13.1297 38.1467 12.9927 38.208C12.9003 38.2505 12.8055 38.2717 12.7083 38.2717C12.5745 38.2732 12.4598 38.2371 12.3642 38.1632C12.2463 38.0768 12.1149 37.9071 11.9699 37.654C11.9014 37.5362 11.8019 37.3437 11.6712 37.0765C11.6234 36.9822 11.578 36.8997 11.535 36.829C11.4824 36.7488 11.4283 36.6969 11.3725 36.6734C11.3184 36.6545 11.2188 36.6443 11.0738 36.6427L10.9711 36.6474C10.9233 36.6584 10.8986 36.6914 10.897 36.7465C10.8954 36.7999 10.8954 36.8572 10.897 36.9185V37.4961C10.8954 37.5762 10.8986 37.647 10.9065 37.7083C10.9209 37.8858 11.0268 38.0037 11.2244 38.0619L11.3176 38.0878C11.3526 38.0972 11.3781 38.1153 11.394 38.142L11.3988 38.1632C11.402 38.2088 11.3614 38.2332 11.2769 38.2363L11.0236 38.2245C10.8468 38.2135 10.701 38.208 10.5863 38.208C10.4382 38.208 10.2956 38.2151 10.1586 38.2292L10.0391 38.2363C9.97536 38.2379 9.9427 38.2104 9.94111 38.1538C9.94111 38.1177 9.9674 38.087 10.02 38.0619L10.106 38.0194C10.2016 37.9691 10.2565 37.8945 10.2709 37.7955C10.2773 37.7562 10.2804 37.709 10.2804 37.654L10.2828 37.4678V35.5654ZM10.897 36.1807C10.8938 36.2545 10.8978 36.3056 10.9089 36.3339C10.9264 36.3779 10.9695 36.3991 11.038 36.3976C11.0682 36.4007 11.1264 36.4015 11.2124 36.3999C11.4848 36.4015 11.6625 36.3787 11.7453 36.3316C11.903 36.2404 11.9819 36.088 11.9819 35.8742C11.9771 35.6353 11.9062 35.4358 11.7692 35.2755C11.6465 35.1324 11.4721 35.0609 11.2459 35.0609C11.0977 35.0625 11.0037 35.0829 10.9639 35.1222C10.9177 35.1662 10.8954 35.2574 10.897 35.3957V36.1807Z" fill="white"/>
<path d="M13.8506 35.5725C13.8506 35.3886 13.8299 35.2597 13.7885 35.1859C13.7327 35.09 13.6212 35.0256 13.4539 34.9926L13.3703 34.9761C13.3145 34.9666 13.2882 34.9423 13.2914 34.903C13.2962 34.8496 13.3352 34.8213 13.4085 34.8181C13.4356 34.8181 13.5176 34.8228 13.6546 34.8323C13.7932 34.8417 13.9438 34.8464 14.1063 34.8464C14.2975 34.8464 14.4592 34.8393 14.5914 34.8252L14.7061 34.8181C14.7698 34.8181 14.8033 34.8456 14.8065 34.9006C14.8049 34.9368 14.7794 34.9674 14.73 34.9926C14.6981 35.0067 14.6687 35.0216 14.6416 35.0374C14.5619 35.0782 14.5125 35.1285 14.4934 35.1882C14.4791 35.2338 14.4703 35.3045 14.4671 35.4004C14.4639 35.4475 14.4632 35.5096 14.4647 35.5866V37.4796C14.4632 37.6635 14.4839 37.7931 14.5269 37.8686C14.5858 37.9723 14.6973 38.0367 14.8614 38.0619L14.9451 38.076C15.0008 38.0902 15.0271 38.1153 15.0239 38.1514C15.0207 38.2065 14.9817 38.2347 14.9068 38.2363L14.6583 38.2245C14.4831 38.2151 14.3238 38.2096 14.1804 38.208C14.0131 38.208 13.861 38.2151 13.7239 38.2292L13.6045 38.2363C13.5423 38.2379 13.5105 38.2104 13.5089 38.1538C13.5089 38.1177 13.5352 38.087 13.5877 38.0619L13.6738 38.0194C13.7694 37.9691 13.8243 37.8945 13.8387 37.7955C13.845 37.7562 13.8482 37.709 13.8482 37.654L13.8506 37.4678V35.5725Z" fill="white"/>
<path d="M16.8687 35.4216C16.8958 35.376 16.9261 35.3202 16.9596 35.2542C16.9755 35.2244 16.9834 35.1969 16.9834 35.1717C16.9834 35.1513 16.9779 35.1372 16.9667 35.1293C16.946 35.1167 16.9189 35.1097 16.8855 35.1081C16.7039 35.0971 16.5445 35.0908 16.4075 35.0892C16.21 35.0908 16.0602 35.1041 15.9583 35.1293C15.8133 35.1639 15.7042 35.2558 15.6309 35.4051L15.5664 35.5489C15.5425 35.5976 15.5114 35.6228 15.4732 35.6243C15.419 35.6306 15.3903 35.5984 15.3872 35.5277L15.3943 35.4216L15.4278 35.1599L15.4445 34.9383C15.4541 34.8566 15.5106 34.8166 15.6142 34.8181C15.6556 34.8181 15.6978 34.8197 15.7408 34.8228C15.8587 34.8323 15.9766 34.8386 16.0945 34.8417L16.441 34.8464C16.6577 34.848 16.9779 34.8425 17.4016 34.8299C17.5307 34.8283 17.6263 34.8252 17.6884 34.8205L17.784 34.8181C17.8541 34.8197 17.8883 34.837 17.8867 34.87C17.8851 34.8936 17.8788 34.9156 17.8676 34.936L17.7553 35.1269L16.3167 37.6399L16.2188 37.8191C16.2044 37.8442 16.1973 37.8662 16.1973 37.8851L16.202 37.9134C16.2148 37.9401 16.2339 37.9526 16.2594 37.9511C16.3343 37.9605 16.4227 37.9652 16.5246 37.9652C16.8257 37.9652 17.0504 37.9503 17.1985 37.9204C17.3993 37.8796 17.5841 37.7586 17.7529 37.5574L17.8389 37.4537C17.8708 37.4175 17.8987 37.3994 17.9226 37.3994C17.9736 37.3979 17.9991 37.4395 17.9991 37.5244C17.9959 37.7035 17.925 37.8717 17.7864 38.0289C17.6637 38.1687 17.498 38.2379 17.2893 38.2363C17.1953 38.2363 17.0774 38.2324 16.9357 38.2245L16.4936 38.2127C16.2753 38.2096 16.1256 38.208 16.0443 38.208C15.8276 38.2096 15.6484 38.2167 15.5066 38.2292C15.4588 38.2355 15.4246 38.2379 15.4039 38.2363C15.3433 38.2363 15.3123 38.2127 15.3107 38.1656C15.3123 38.1279 15.3457 38.0603 15.4111 37.9629C15.4588 37.889 15.5146 37.7978 15.5783 37.6894L16.8687 35.4216Z" fill="white"/>
<path d="M18.9095 37.9652C18.8697 37.9322 18.8362 37.9008 18.8092 37.8709C18.4603 37.5377 18.285 37.1166 18.2834 36.6074C18.2834 36.0699 18.4475 35.6283 18.7757 35.2825C19.0895 34.9525 19.5348 34.7859 20.1115 34.7828C20.5958 34.7828 20.9933 34.9391 21.304 35.2519C21.4776 35.4279 21.6011 35.6283 21.6744 35.853C21.7269 36.0149 21.7532 36.2019 21.7532 36.4141C21.7516 36.6922 21.7086 36.9413 21.6242 37.1613C21.5206 37.4301 21.3581 37.6588 21.1367 37.8473C20.9774 37.9841 20.8005 38.0902 20.6062 38.1656L20.4532 38.2198L20.5871 38.307C20.689 38.3762 20.7822 38.4351 20.8667 38.4838C20.9527 38.5326 21.0435 38.5711 21.1391 38.5993C21.2076 38.6229 21.2721 38.6339 21.3326 38.6324C21.4091 38.6339 21.5007 38.6009 21.6074 38.5333C21.6345 38.5161 21.6576 38.5074 21.6768 38.5074C21.7245 38.5121 21.7492 38.5365 21.7508 38.5805C21.7508 38.6465 21.6441 38.7494 21.4306 38.8893C21.2713 38.9962 21.1104 39.0504 20.9479 39.052C20.8619 39.052 20.7822 39.0402 20.7089 39.0166C20.607 38.9867 20.501 38.9412 20.3911 38.8799C20.2509 38.806 20.1059 38.7204 19.9562 38.6229C19.8734 38.5711 19.7626 38.4964 19.624 38.399C19.5316 38.3361 19.4488 38.2835 19.3755 38.241C19.3086 38.2033 19.2481 38.1844 19.1939 38.1844C19.0298 38.1907 18.9063 38.2929 18.8235 38.4909C18.7964 38.5522 18.7789 38.6127 18.7709 38.6724C18.7582 38.751 18.7303 38.7911 18.6873 38.7927H18.6634C18.6108 38.7832 18.5837 38.7251 18.5821 38.6182C18.5805 38.4642 18.6212 38.322 18.704 38.1915C18.7438 38.1271 18.7964 38.0658 18.8617 38.0076L18.9095 37.9652ZM18.8976 36.3174C18.896 36.7653 18.9748 37.1378 19.1341 37.4348C19.3524 37.845 19.6559 38.0517 20.0446 38.0548C20.3744 38.0564 20.642 37.9228 20.8475 37.654C21.0387 37.4073 21.1359 37.0702 21.1391 36.6427C21.1391 36.4038 21.104 36.1744 21.0339 35.9544C20.9431 35.6746 20.8085 35.4562 20.6301 35.299C20.4214 35.1152 20.1824 35.024 19.9132 35.0256C19.7921 35.0256 19.675 35.0452 19.5619 35.0845C19.2481 35.1914 19.0497 35.4122 18.9669 35.7469C18.9191 35.9308 18.896 36.121 18.8976 36.3174Z" fill="white"/>
<path d="M22.1619 37.258C22.1475 37.192 22.1403 37.1393 22.1403 37.1001C22.1403 37.0545 22.1603 37.0246 22.2001 37.0105L22.2312 37.0058C22.2805 37.0073 22.318 37.0427 22.3435 37.1118C22.3785 37.2187 22.4104 37.3012 22.4391 37.3594C22.6398 37.801 22.9226 38.0241 23.2874 38.0289C23.4642 38.0289 23.6148 37.9723 23.739 37.8591C23.8649 37.7444 23.9286 37.5982 23.9302 37.4207C23.9318 37.2148 23.8466 37.0639 23.6745 36.968C23.5821 36.9162 23.4642 36.8612 23.3208 36.803C23.1934 36.7543 23.0636 36.6993 22.9313 36.638C22.7991 36.5751 22.6884 36.5139 22.5992 36.4541C22.3554 36.2954 22.2343 36.0557 22.2359 35.7351C22.2343 35.4633 22.3267 35.2369 22.5131 35.0562C22.6995 34.8755 22.9281 34.7843 23.199 34.7828C23.3423 34.7812 23.5112 34.8197 23.7056 34.8983C23.7773 34.9297 23.8386 34.9533 23.8896 34.969C23.9135 34.9784 23.9406 34.9824 23.9708 34.9808C24.0059 34.9824 24.0553 34.9666 24.119 34.9336C24.1429 34.9226 24.1644 34.9163 24.1835 34.9148C24.217 34.9148 24.2401 34.9344 24.2528 34.9737L24.2576 35.0279L24.2504 35.1764C24.2488 35.2629 24.252 35.3336 24.26 35.3886L24.2887 35.622C24.2998 35.71 24.3054 35.7776 24.3054 35.8247C24.3038 35.8954 24.2791 35.9308 24.2313 35.9308C24.1708 35.9292 24.1277 35.8892 24.1023 35.8106L24.064 35.688C24.0497 35.6456 24.0346 35.6055 24.0186 35.5678C23.9836 35.4908 23.935 35.4161 23.8729 35.3438C23.6865 35.1301 23.465 35.024 23.2085 35.0256C23.054 35.0271 22.9281 35.0672 22.831 35.1458C22.7226 35.2354 22.6693 35.3517 22.6708 35.4947C22.6708 35.666 22.7633 35.8019 22.9481 35.9025C23.0643 35.9669 23.199 36.029 23.3519 36.0887C23.5431 36.1658 23.7048 36.238 23.837 36.3056C23.9437 36.3622 24.0385 36.4361 24.1214 36.5272C24.2823 36.7064 24.3635 36.9319 24.3651 37.2038C24.3651 37.504 24.2679 37.7546 24.0736 37.9558C23.8744 38.1664 23.6259 38.2717 23.328 38.2717C23.1719 38.2717 23.0046 38.2418 22.8262 38.1821L22.6422 38.1208C22.6071 38.1114 22.5561 38.0996 22.4892 38.0854C22.4398 38.0776 22.4032 38.0666 22.3793 38.0524C22.3395 38.0289 22.3124 37.9762 22.2981 37.8945L22.1619 37.258Z" fill="white"/>
<path d="M24.8239 34.9478C24.8287 34.8582 24.8773 34.815 24.9697 34.8181L25.2684 34.8299C25.4676 34.8425 25.6364 34.848 25.775 34.8464H26.3987H27.0248C27.2032 34.8433 27.3713 34.8378 27.529 34.8299C27.666 34.8236 27.7664 34.8197 27.8301 34.8181C27.9178 34.815 27.9655 34.8582 27.9735 34.9478L28.038 35.5159L28.0548 35.688C28.0532 35.7446 28.0213 35.7729 27.9592 35.7729C27.913 35.7744 27.8771 35.7438 27.8516 35.6809C27.8277 35.6243 27.8038 35.5481 27.78 35.4523C27.7322 35.2762 27.6485 35.1702 27.529 35.134C27.4319 35.1026 27.2909 35.0876 27.1061 35.0892H26.8767C26.8082 35.0892 26.762 35.0994 26.7381 35.1199C26.7158 35.1403 26.7062 35.1843 26.7094 35.2519L26.707 35.6008V37.2698L26.7142 37.5456C26.7221 37.7436 26.75 37.867 26.7978 37.9157C26.8472 37.9644 26.9675 38.0131 27.1586 38.0619C27.2303 38.0792 27.2662 38.1114 27.2662 38.1585C27.263 38.2104 27.2335 38.2363 27.1778 38.2363L27.0439 38.2269C26.9945 38.2237 26.9053 38.2198 26.7763 38.2151L26.3796 38.208L26.0235 38.2151C25.8929 38.2198 25.8037 38.2237 25.7559 38.2269L25.6221 38.2363C25.5663 38.2379 25.5369 38.2104 25.5337 38.1538C25.5321 38.1082 25.5711 38.0776 25.6508 38.0619C25.8292 38.0194 25.9455 37.9684 25.9997 37.9086C26.0474 37.8552 26.0761 37.7326 26.0857 37.5409L26.0928 37.2698V35.6008V35.2519C26.0944 35.145 26.0427 35.0908 25.9375 35.0892H25.7009C25.6038 35.0892 25.513 35.0931 25.4285 35.101C25.3043 35.1136 25.2135 35.145 25.1561 35.1953C25.0987 35.2456 25.0533 35.3312 25.0199 35.4523C24.9912 35.5497 24.9673 35.6259 24.9482 35.6809C24.9243 35.7422 24.8893 35.7729 24.8431 35.7729C24.7777 35.776 24.7451 35.7477 24.7451 35.688C24.7451 35.6581 24.7499 35.6008 24.7594 35.5159L24.8239 34.9478Z" fill="white"/>
<path d="M28.7263 35.5348L28.7215 35.3179C28.7167 35.2283 28.7016 35.1662 28.6761 35.1317C28.6506 35.0955 28.5916 35.0625 28.4992 35.0326C28.4467 35.0169 28.3973 35.0036 28.3511 34.9926C28.2666 34.9721 28.2244 34.9407 28.2244 34.8983C28.2228 34.8464 28.2611 34.8197 28.3391 34.8181L28.516 34.8276C28.6737 34.8401 28.8123 34.8464 28.9318 34.8464C29.0178 34.8464 29.1221 34.8433 29.2448 34.837L29.5722 34.8181C29.6471 34.8181 29.6837 34.8464 29.6821 34.903L29.675 34.9383C29.6638 34.9619 29.6359 34.98 29.5913 34.9926C29.483 35.0209 29.4145 35.0735 29.3858 35.1505C29.3603 35.2118 29.3468 35.299 29.3452 35.4122L29.3404 35.5489V36.605C29.342 36.8297 29.3508 37.0003 29.3667 37.1166C29.3906 37.3004 29.4527 37.4568 29.5531 37.5857C29.7443 37.8418 30.0246 37.9691 30.3942 37.9676C31.0665 37.9644 31.433 37.5527 31.4935 36.7323C31.5015 36.627 31.5054 36.5304 31.5054 36.4424V35.7964C31.507 35.6173 31.4991 35.4664 31.4815 35.3438C31.4672 35.2464 31.4417 35.1764 31.4051 35.134C31.37 35.09 31.3039 35.0531 31.2067 35.0232C31.1573 35.0091 31.1088 34.9989 31.061 34.9926C30.9845 34.9863 30.9463 34.9548 30.9463 34.8983C30.9478 34.8448 30.9797 34.8181 31.0418 34.8181C31.0721 34.8197 31.1279 34.8252 31.2091 34.8346C31.2649 34.8425 31.3493 34.8464 31.4624 34.8464C31.6504 34.848 31.8089 34.8393 31.938 34.8205C31.9475 34.8189 31.9658 34.8181 31.9929 34.8181C32.0614 34.8213 32.0949 34.8488 32.0933 34.9006C32.0933 34.9509 32.0614 34.9816 31.9977 34.9926C31.8782 35.0193 31.8057 35.0884 31.7802 35.2C31.7627 35.2802 31.754 35.3862 31.754 35.5183L31.7516 35.8082V36.4494C31.7516 36.5689 31.7468 36.6899 31.7372 36.8125C31.6958 37.2981 31.5437 37.6603 31.2808 37.8992C31.0116 38.1475 30.6412 38.2717 30.1696 38.2717C29.6996 38.2717 29.342 38.1617 29.0967 37.9416C28.9469 37.8081 28.8489 37.6493 28.8027 37.4655C28.7613 37.3067 28.7374 37.1197 28.731 36.9044C28.7263 36.7802 28.7247 36.6765 28.7263 36.5932V35.5348Z" fill="white"/>
<path d="M32.7959 35.5913C32.7959 35.5206 32.7927 35.4507 32.7863 35.3815C32.7767 35.2715 32.7473 35.189 32.6979 35.134C32.6628 35.0947 32.5824 35.0562 32.4565 35.0185L32.3729 34.9926C32.3139 34.9737 32.2877 34.9462 32.294 34.9101C32.2877 34.8503 32.3259 34.8197 32.4087 34.8181L32.662 34.8393C32.7082 34.8456 32.807 34.848 32.9584 34.8464C33.1575 34.848 33.3399 34.8448 33.5056 34.837L34.005 34.8181C34.5626 34.8181 34.9959 34.9383 35.305 35.1788C35.6826 35.4711 35.8722 35.8656 35.8737 36.3622C35.8737 36.6262 35.8188 36.8824 35.7089 37.1307C35.3855 37.8646 34.7856 38.2332 33.9094 38.2363L33.5056 38.2151C33.4164 38.212 33.3184 38.2096 33.2117 38.208C33.0778 38.2096 32.8867 38.2182 32.6381 38.234C32.6158 38.2371 32.5927 38.2379 32.5688 38.2363C32.494 38.2395 32.4557 38.2127 32.4541 38.1562C32.4541 38.1184 32.4796 38.087 32.5306 38.0619C32.5688 38.0462 32.5983 38.032 32.619 38.0194C32.6955 37.9833 32.7441 37.933 32.7648 37.8686C32.7791 37.823 32.7887 37.7515 32.7935 37.654C32.7951 37.6085 32.7959 37.5464 32.7959 37.4678V35.5913ZM33.41 37.1378C33.41 37.4615 33.4243 37.665 33.453 37.7483C33.5072 37.9134 33.6808 37.9951 33.974 37.9935C34.5921 37.9951 34.9904 37.7255 35.1688 37.1849C35.2293 37.0026 35.2596 36.803 35.2596 36.5862C35.2596 36.4133 35.2413 36.2569 35.2046 36.117C35.1266 35.8279 34.9832 35.5851 34.7745 35.3886C34.5658 35.1922 34.3077 35.0845 34.0002 35.0656L33.8067 35.0609C33.6553 35.0609 33.5542 35.0782 33.5032 35.1128C33.4427 35.1537 33.4116 35.2472 33.41 35.3933V35.6385V37.1378Z" fill="white"/>
<path d="M36.7149 35.5631L36.6026 35.358C36.4895 35.1631 36.3549 35.0413 36.1987 34.9926C36.1589 34.9816 36.131 34.969 36.1151 34.9548L36.0984 34.9313L36.0936 34.8983C36.0968 34.8433 36.1286 34.8166 36.1892 34.8181L36.2872 34.8252C36.405 34.8393 36.5628 34.8464 36.7603 34.8464C36.9467 34.848 37.102 34.8425 37.2263 34.8299L37.3983 34.8181H37.4294C37.4756 34.8213 37.5043 34.8393 37.5154 34.8723L37.5202 34.9006C37.5202 34.9431 37.5019 34.9737 37.4653 34.9926C37.443 35.0051 37.4127 35.0154 37.3745 35.0232C37.2805 35.0452 37.2335 35.0869 37.2335 35.1482C37.2335 35.2016 37.2717 35.299 37.3482 35.4405L37.8022 36.3268L37.8452 36.3952C37.8548 36.4078 37.8667 36.4172 37.8811 36.4235L37.905 36.4282C37.9273 36.4266 37.948 36.4148 37.9671 36.3928C37.9782 36.3787 37.991 36.3583 38.0053 36.3316L38.4402 35.5277C38.4992 35.4177 38.5295 35.332 38.531 35.2707C38.5279 35.1497 38.4076 35.057 38.1702 34.9926C38.0969 34.9784 38.0627 34.9493 38.0675 34.9053C38.0675 34.8503 38.1017 34.8213 38.1702 34.8181C38.21 34.8197 38.2618 34.8236 38.3255 34.8299C38.4132 34.8425 38.5191 34.848 38.6434 34.8464C38.7405 34.848 38.8353 34.8448 38.9277 34.837C38.9883 34.8338 39.0456 34.8283 39.0998 34.8205C39.1109 34.8189 39.1269 34.8181 39.1476 34.8181C39.2113 34.8166 39.2424 34.8433 39.2408 34.8983C39.2392 34.9391 39.2129 34.9706 39.1619 34.9926C39.0185 35.0586 38.8967 35.1796 38.7963 35.3556L38.6171 35.6762L38.0914 36.6357C38.0579 36.6938 38.0396 36.7378 38.0364 36.7677C38.0332 36.7771 38.0324 36.8101 38.034 36.8667V37.3476L38.0412 37.5362C38.0428 37.6258 38.0515 37.7043 38.0675 37.7719C38.0866 37.8803 38.1559 37.955 38.2754 37.9959C38.3423 38.0226 38.4124 38.0446 38.4856 38.0619C38.5573 38.0792 38.5932 38.1114 38.5932 38.1585C38.59 38.2104 38.5605 38.2363 38.5048 38.2363L38.3709 38.2269C38.3216 38.2237 38.2331 38.2198 38.1057 38.2151L37.7066 38.208L37.3506 38.2151C37.2215 38.2198 37.1331 38.2237 37.0853 38.2269C37.0295 38.2332 36.9841 38.2363 36.9491 38.2363C36.8933 38.2379 36.8639 38.2104 36.8607 38.1538C36.8591 38.1082 36.8981 38.0776 36.9778 38.0619C37.1514 38.0226 37.2669 37.9707 37.3243 37.9063C37.3752 37.8513 37.4047 37.7295 37.4127 37.5409L37.4199 37.3476V36.9539V36.8714C37.4135 36.8494 37.4047 36.825 37.3936 36.7983L37.3219 36.6663L36.7149 35.5631Z" fill="white"/>
<path d="M16.9511 40.8448C17.2178 40.8448 17.4486 40.945 17.6436 41.1453C17.8396 41.3446 17.9376 41.5938 17.9376 41.8927C17.9376 42.2007 17.8391 42.4563 17.6421 42.6596C17.4451 42.8629 17.2067 42.9646 16.9268 42.9646C16.644 42.9646 16.4061 42.8654 16.2131 42.6671C16.0211 42.4688 15.9252 42.2122 15.9252 41.8972C15.9252 41.5753 16.0363 41.3127 16.2586 41.1094C16.4515 40.933 16.6824 40.8448 16.9511 40.8448ZM16.9223 40.9539C16.7384 40.9539 16.5909 41.0212 16.4798 41.1557C16.3414 41.3232 16.2722 41.5683 16.2722 41.8912C16.2722 42.2221 16.3439 42.4768 16.4874 42.6551C16.5975 42.7907 16.743 42.8585 16.9238 42.8585C17.1168 42.8585 17.2759 42.7842 17.4012 42.6357C17.5275 42.4872 17.5906 42.253 17.5906 41.9331C17.5906 41.5863 17.5214 41.3277 17.383 41.1572C17.2719 41.0217 17.1183 40.9539 16.9223 40.9539Z" fill="white"/>
<path d="M18.5604 41.7986C18.7231 41.6052 18.8782 41.5085 19.0257 41.5085C19.1014 41.5085 19.1666 41.5275 19.2212 41.5654C19.2757 41.6022 19.3192 41.6635 19.3515 41.7492C19.3737 41.809 19.3848 41.9007 19.3848 42.0243V42.6088C19.3848 42.6955 19.3919 42.7543 19.406 42.7852C19.4171 42.8101 19.4348 42.8296 19.4591 42.8435C19.4843 42.8575 19.5303 42.8644 19.597 42.8644V42.9183H18.9105V42.8644H18.9393C19.004 42.8644 19.0489 42.855 19.0742 42.836C19.1004 42.8161 19.1186 42.7872 19.1287 42.7493C19.1328 42.7344 19.1348 42.6875 19.1348 42.6088V42.0482C19.1348 41.9236 19.1181 41.8334 19.0848 41.7776C19.0524 41.7208 18.9974 41.6924 18.9196 41.6924C18.7994 41.6924 18.6797 41.7572 18.5604 41.8868V42.6088C18.5604 42.7015 18.566 42.7588 18.5771 42.7807C18.5913 42.8096 18.6105 42.8311 18.6347 42.845C18.66 42.858 18.7105 42.8644 18.7862 42.8644V42.9183H18.0998V42.8644H18.1301C18.2008 42.8644 18.2483 42.847 18.2725 42.8121C18.2978 42.7762 18.3104 42.7085 18.3104 42.6088V42.1005C18.3104 41.9361 18.3064 41.8359 18.2983 41.8001C18.2912 41.7642 18.2796 41.7398 18.2634 41.7268C18.2483 41.7138 18.2276 41.7074 18.2013 41.7074C18.173 41.7074 18.1392 41.7148 18.0998 41.7298L18.077 41.676L18.4953 41.5085H18.5604V41.7986Z" fill="white"/>
<path d="M20.185 40.7925V42.6088C20.185 42.6945 20.191 42.7513 20.2031 42.7792C20.2163 42.8071 20.236 42.8286 20.2622 42.8435C20.2885 42.8575 20.3375 42.8644 20.4092 42.8644V42.9183H19.7288V42.8644C19.7925 42.8644 19.8359 42.858 19.8591 42.845C19.8824 42.832 19.9006 42.8106 19.9137 42.7807C19.9268 42.7508 19.9334 42.6935 19.9334 42.6088V41.365C19.9334 41.2106 19.9299 41.1159 19.9228 41.081C19.9157 41.0451 19.9041 41.0207 19.8879 41.0077C19.8728 40.9948 19.8531 40.9883 19.8288 40.9883C19.8026 40.9883 19.7692 40.9963 19.7288 41.0122L19.7031 40.9599L20.1168 40.7925H20.185Z" fill="white"/>
<path d="M20.9245 40.7925C20.9669 40.7925 21.0028 40.8074 21.0321 40.8373C21.0624 40.8662 21.0775 40.9016 21.0775 40.9435C21.0775 40.9853 21.0624 41.0212 21.0321 41.0511C21.0028 41.081 20.9669 41.0959 20.9245 41.0959C20.882 41.0959 20.8457 41.081 20.8154 41.0511C20.785 41.0212 20.7699 40.9853 20.7699 40.9435C20.7699 40.9016 20.7845 40.8662 20.8138 40.8373C20.8441 40.8074 20.881 40.7925 20.9245 40.7925ZM21.0502 41.5085V42.6088C21.0502 42.6945 21.0563 42.7518 21.0684 42.7807C21.0816 42.8086 21.1002 42.8296 21.1245 42.8435C21.1498 42.8575 21.1952 42.8644 21.2609 42.8644V42.9183H20.5865V42.8644C20.6542 42.8644 20.6997 42.858 20.7229 42.845C20.7462 42.832 20.7643 42.8106 20.7775 42.7807C20.7916 42.7508 20.7987 42.6935 20.7987 42.6088V42.0811C20.7987 41.9326 20.7941 41.8364 20.785 41.7926C20.778 41.7607 20.7669 41.7388 20.7517 41.7268C20.7366 41.7138 20.7158 41.7074 20.6896 41.7074C20.6613 41.7074 20.6269 41.7148 20.5865 41.7298L20.5653 41.676L20.9836 41.5085H21.0502Z" fill="white"/>
<path d="M21.8398 41.7986C22.0024 41.6052 22.1575 41.5085 22.305 41.5085C22.3808 41.5085 22.4459 41.5275 22.5005 41.5654C22.555 41.6022 22.5985 41.6635 22.6308 41.7492C22.653 41.809 22.6641 41.9007 22.6641 42.0243V42.6088C22.6641 42.6955 22.6712 42.7543 22.6854 42.7852C22.6965 42.8101 22.7141 42.8296 22.7384 42.8435C22.7636 42.8575 22.8096 42.8644 22.8763 42.8644V42.9183H22.1898V42.8644H22.2186C22.2833 42.8644 22.3282 42.855 22.3535 42.836C22.3797 42.8161 22.3979 42.7872 22.408 42.7493C22.4121 42.7344 22.4141 42.6875 22.4141 42.6088V42.0482C22.4141 41.9236 22.3974 41.8334 22.3641 41.7776C22.3318 41.7208 22.2767 41.6924 22.1989 41.6924C22.0787 41.6924 21.959 41.7572 21.8398 41.8868V42.6088C21.8398 42.7015 21.8453 42.7588 21.8564 42.7807C21.8706 42.8096 21.8898 42.8311 21.914 42.845C21.9393 42.858 21.9898 42.8644 22.0656 42.8644V42.9183H21.3791V42.8644H21.4094C21.4801 42.8644 21.5276 42.847 21.5518 42.8121C21.5771 42.7762 21.5897 42.7085 21.5897 42.6088V42.1005C21.5897 41.9361 21.5857 41.8359 21.5776 41.8001C21.5705 41.7642 21.5589 41.7398 21.5427 41.7268C21.5276 41.7138 21.5069 41.7074 21.4806 41.7074C21.4523 41.7074 21.4185 41.7148 21.3791 41.7298L21.3564 41.676L21.7746 41.5085H21.8398V41.7986Z" fill="white"/>
<path d="M23.2203 42.0647C23.2193 42.268 23.2693 42.4274 23.3703 42.543C23.4713 42.6586 23.59 42.7164 23.7264 42.7164C23.8174 42.7164 23.8962 42.692 23.9628 42.6432C24.0305 42.5934 24.0871 42.5086 24.1326 42.3891L24.1795 42.419C24.1583 42.5555 24.0967 42.6801 23.9947 42.7927C23.8926 42.9043 23.7648 42.9601 23.6113 42.9601C23.4446 42.9601 23.3016 42.8963 23.1824 42.7688C23.0642 42.6402 23.0051 42.4678 23.0051 42.2515C23.0051 42.0173 23.0657 41.8349 23.187 41.7044C23.3092 41.5728 23.4622 41.5071 23.6461 41.5071C23.8017 41.5071 23.9295 41.5579 24.0295 41.6595C24.1295 41.7602 24.1795 41.8952 24.1795 42.0647H23.2203ZM23.2203 41.978H23.8628C23.8578 41.8902 23.8472 41.8285 23.831 41.7926C23.8057 41.7368 23.7679 41.6929 23.7173 41.661C23.6678 41.6291 23.6158 41.6132 23.5613 41.6132C23.4774 41.6132 23.4021 41.6456 23.3355 41.7104C23.2698 41.7741 23.2314 41.8633 23.2203 41.978Z" fill="white"/>
<path d="M26.0389 41.5085V41.975H25.9889C25.9505 41.8285 25.901 41.7288 25.8404 41.676C25.7808 41.6232 25.7045 41.5967 25.6116 41.5967C25.5409 41.5967 25.4838 41.6152 25.4403 41.6521C25.3969 41.6889 25.3752 41.7298 25.3752 41.7746C25.3752 41.8305 25.3913 41.8783 25.4237 41.9182C25.455 41.959 25.5186 42.0024 25.6146 42.0482L25.8359 42.1544C26.0409 42.253 26.1435 42.3831 26.1435 42.5445C26.1435 42.6691 26.0955 42.7698 25.9995 42.8465C25.9046 42.9222 25.798 42.9601 25.6798 42.9601C25.5949 42.9601 25.4979 42.9452 25.3888 42.9153C25.3555 42.9053 25.3282 42.9003 25.307 42.9003C25.2838 42.9003 25.2656 42.9133 25.2524 42.9392H25.2024V42.4503H25.2524C25.2807 42.5899 25.3348 42.695 25.4146 42.7658C25.4944 42.8365 25.5838 42.8719 25.6828 42.8719C25.7525 42.8719 25.8091 42.852 25.8525 42.8121C25.897 42.7713 25.9192 42.7224 25.9192 42.6656C25.9192 42.5968 25.8945 42.539 25.845 42.4922C25.7965 42.4454 25.699 42.3861 25.5525 42.3143C25.406 42.2426 25.31 42.1778 25.2646 42.12C25.2191 42.0632 25.1964 41.9914 25.1964 41.9047C25.1964 41.7921 25.2353 41.6979 25.3131 41.6222C25.3919 41.5464 25.4934 41.5085 25.6176 41.5085C25.6722 41.5085 25.7384 41.52 25.8162 41.5429C25.8677 41.5579 25.902 41.5654 25.9192 41.5654C25.9354 41.5654 25.948 41.5619 25.9571 41.5549C25.9662 41.5479 25.9768 41.5325 25.9889 41.5085H26.0389Z" fill="white"/>
<path d="M27.5301 42.398C27.4927 42.5784 27.4195 42.7174 27.3103 42.8151C27.2012 42.9118 27.0805 42.9601 26.9482 42.9601C26.7906 42.9601 26.6532 42.8948 26.536 42.7643C26.4188 42.6337 26.3602 42.4573 26.3602 42.2351C26.3602 42.0198 26.4248 41.8449 26.5542 41.7104C26.6845 41.5758 26.8406 41.5085 27.0224 41.5085C27.1588 41.5085 27.2709 41.5444 27.3588 41.6162C27.4467 41.6869 27.4907 41.7607 27.4907 41.8374C27.4907 41.8753 27.478 41.9062 27.4528 41.9301C27.4285 41.953 27.3942 41.9645 27.3497 41.9645C27.2901 41.9645 27.2452 41.9456 27.2149 41.9077C27.1977 41.8868 27.1861 41.8469 27.18 41.7881C27.175 41.7293 27.1548 41.6844 27.1194 41.6536C27.084 41.6237 27.035 41.6087 26.9724 41.6087C26.8714 41.6087 26.7901 41.6456 26.7284 41.7193C26.6466 41.817 26.6057 41.9461 26.6057 42.1065C26.6057 42.27 26.6461 42.4145 26.7269 42.54C26.8087 42.6646 26.9189 42.7269 27.0573 42.7269C27.1563 42.7269 27.2452 42.6935 27.324 42.6267C27.3795 42.5809 27.4336 42.4977 27.4861 42.3771L27.5301 42.398Z" fill="white"/>
<path d="M28.1378 40.7925V41.7941C28.2499 41.6725 28.3388 41.5948 28.4045 41.5609C28.4701 41.526 28.5358 41.5085 28.6015 41.5085C28.6803 41.5085 28.748 41.53 28.8045 41.5728C28.8611 41.6157 28.903 41.683 28.9303 41.7746C28.9495 41.8384 28.9591 41.955 28.9591 42.1245V42.6088C28.9591 42.6955 28.9662 42.7548 28.9803 42.7867C28.9904 42.8106 29.0076 42.8296 29.0318 42.8435C29.0561 42.8575 29.1005 42.8644 29.1652 42.8644V42.9183H28.4833V42.8644H28.5151C28.5797 42.8644 28.6247 42.855 28.65 42.836C28.6752 42.8161 28.6929 42.7872 28.703 42.7493C28.706 42.7334 28.7075 42.6865 28.7075 42.6088V42.1245C28.7075 41.975 28.6995 41.8768 28.6833 41.83C28.6681 41.7831 28.6434 41.7482 28.609 41.7253C28.5747 41.7014 28.5333 41.6894 28.4848 41.6894C28.4353 41.6894 28.3838 41.7024 28.3302 41.7283C28.2767 41.7542 28.2125 41.8065 28.1378 41.8853V42.6088C28.1378 42.7025 28.1428 42.7608 28.1529 42.7837C28.164 42.8066 28.1837 42.8261 28.212 42.842C28.2413 42.857 28.2913 42.8644 28.362 42.8644V42.9183H27.674V42.8644C27.7357 42.8644 27.7842 42.855 27.8195 42.836C27.8397 42.8261 27.8559 42.8071 27.868 42.7792C27.8801 42.7513 27.8862 42.6945 27.8862 42.6088V41.3695C27.8862 41.2131 27.8822 41.1169 27.8741 41.081C27.867 41.0451 27.8554 41.0207 27.8392 41.0077C27.8241 40.9948 27.8034 40.9883 27.7771 40.9883C27.7559 40.9883 27.7215 40.9963 27.674 41.0122L27.6528 40.9599L28.068 40.7925H28.1378Z" fill="white"/>
<path d="M29.9608 41.5085C30.1709 41.5085 30.3396 41.5873 30.4669 41.7447C30.575 41.8793 30.6291 42.0338 30.6291 42.2082C30.6291 42.3308 30.5993 42.4548 30.5397 42.5804C30.48 42.706 30.3977 42.8007 30.2926 42.8644C30.1886 42.9282 30.0724 42.9601 29.9441 42.9601C29.735 42.9601 29.5688 42.8779 29.4455 42.7135C29.3415 42.5749 29.2895 42.4195 29.2895 42.247C29.2895 42.1215 29.3208 41.9969 29.3834 41.8733C29.4471 41.7487 29.5304 41.657 29.6334 41.5982C29.7365 41.5384 29.8456 41.5085 29.9608 41.5085ZM29.9138 41.6057C29.8603 41.6057 29.8062 41.6217 29.7516 41.6536C29.6981 41.6844 29.6547 41.7393 29.6213 41.818C29.588 41.8967 29.5713 41.9979 29.5713 42.1215C29.5713 42.3208 29.6112 42.4927 29.691 42.6372C29.7719 42.7817 29.8779 42.854 30.0093 42.854C30.1073 42.854 30.1881 42.8141 30.2517 42.7344C30.3154 42.6547 30.3472 42.5176 30.3472 42.3233C30.3472 42.0801 30.2942 41.8888 30.1881 41.7492C30.1164 41.6536 30.0249 41.6057 29.9138 41.6057Z" fill="white"/>
<path d="M31.5125 41.5085C31.7227 41.5085 31.8914 41.5873 32.0187 41.7447C32.1268 41.8793 32.1808 42.0338 32.1808 42.2082C32.1808 42.3308 32.151 42.4548 32.0914 42.5804C32.0318 42.706 31.9495 42.8007 31.8444 42.8644C31.7404 42.9282 31.6242 42.9601 31.4959 42.9601C31.2867 42.9601 31.1206 42.8779 30.9973 42.7135C30.8932 42.5749 30.8412 42.4195 30.8412 42.247C30.8412 42.1215 30.8725 41.9969 30.9352 41.8733C30.9988 41.7487 31.0822 41.657 31.1852 41.5982C31.2883 41.5384 31.3974 41.5085 31.5125 41.5085ZM31.4656 41.6057C31.412 41.6057 31.358 41.6217 31.3034 41.6536C31.2499 41.6844 31.2064 41.7393 31.1731 41.818C31.1398 41.8967 31.1231 41.9979 31.1231 42.1215C31.1231 42.3208 31.163 42.4927 31.2428 42.6372C31.3236 42.7817 31.4297 42.854 31.561 42.854C31.659 42.854 31.7398 42.8141 31.8035 42.7344C31.8671 42.6547 31.899 42.5176 31.899 42.3233C31.899 42.0801 31.8459 41.8888 31.7398 41.7492C31.6681 41.6536 31.5767 41.6057 31.4656 41.6057Z" fill="white"/>
<path d="M32.8628 40.7925V42.6088C32.8628 42.6945 32.8688 42.7513 32.8809 42.7792C32.8941 42.8071 32.9138 42.8286 32.94 42.8435C32.9663 42.8575 33.0153 42.8644 33.087 42.8644V42.9183H32.4066V42.8644C32.4703 42.8644 32.5137 42.858 32.5369 42.845C32.5602 42.832 32.5784 42.8106 32.5915 42.7807C32.6046 42.7508 32.6112 42.6935 32.6112 42.6088V41.365C32.6112 41.2106 32.6077 41.1159 32.6006 41.081C32.5935 41.0451 32.5819 41.0207 32.5657 41.0077C32.5506 40.9948 32.5309 40.9883 32.5066 40.9883C32.4804 40.9883 32.447 40.9963 32.4066 41.0122L32.3809 40.9599L32.7946 40.7925H32.8628Z" fill="white"/>
</svg>
